<svg id="Layer_1" data-name="Layer 1" xmlns="http://www.w3.org/2000/svg" xmlns:xlink="http://www.w3.org/1999/xlink" viewBox="0 0 80.15 54.28"><defs><style>.cls-1{fill:url(#linear-gradient);}.cls-2{fill:url(#linear-gradient-2);}.cls-3{fill:url(#linear-gradient-3);}.cls-4{fill:url(#linear-gradient-4);}.cls-5{fill:url(#linear-gradient-5);}.cls-6{fill:#fff;}.cls-7{fill:url(#linear-gradient-6);}.cls-8{fill:url(#linear-gradient-7);}.cls-9{fill:url(#linear-gradient-8);}.cls-10{fill:url(#linear-gradient-9);}.cls-11{opacity:0.9;}</style><linearGradient id="linear-gradient" x1="60.79" y1="40.84" x2="60.95" y2="40.84" gradientUnits="userSpaceOnUse"><stop offset="0" stop-color="#c394ff"/><stop offset="1" stop-color="#e900dd"/></linearGradient><linearGradient id="linear-gradient-2" x1="41.03" y1="71" x2="66.82" y2="71" xlink:href="#linear-gradient"/><linearGradient id="linear-gradient-3" x1="17.77" y1="71.8" x2="55.09" y2="71.8" xlink:href="#linear-gradient"/><linearGradient id="linear-gradient-4" x1="37.19" y1="33.55" x2="77.92" y2="33.55" xlink:href="#linear-gradient"/><linearGradient id="linear-gradient-5" x1="11.89" y1="50.09" x2="79.93" y2="50.09" xlink:href="#linear-gradient"/><linearGradient id="linear-gradient-6" x1="27.44" y1="34.1" x2="57.48" y2="34.1" xlink:href="#linear-gradient"/><linearGradient id="linear-gradient-7" x1="52.02" y1="37.2" x2="60.49" y2="37.2" xlink:href="#linear-gradient"/><linearGradient id="linear-gradient-8" x1="36.63" y1="37.67" x2="57.48" y2="37.67" xlink:href="#linear-gradient"/><linearGradient id="linear-gradient-9" x1="27.93" y1="51.05" x2="63.89" y2="51.05" xlink:href="#linear-gradient"/></defs><path class="cls-1" d="M61,40.86l-.06,0-.1-.15Z" transform="translate(-11.89 -23.71)"/><path class="cls-2" d="M66.82,72.25a37.17,37.17,0,0,1-8.91,4,62.74,62.74,0,0,0-10.16-7.53h0A37,37,0,0,0,44.18,67,31.73,31.73,0,0,0,41,65.81a48.66,48.66,0,0,1,13,1.07,39.65,39.65,0,0,1,8.15,2.79A41.15,41.15,0,0,1,66.82,72.25Z" transform="translate(-11.89 -23.71)"/><path class="cls-3" d="M55.09,77a41.66,41.66,0,0,1-9.18,1c-11.7,0-22-4.7-28.14-11.87a53.69,53.69,0,0,1,15.37.13q-2.17.56-4.5,1.32,3-.69,5.77-1.1a39.67,39.67,0,0,1,9.53,3.08A51.14,51.14,0,0,1,55.09,77Z" transform="translate(-11.89 -23.71)"/><path class="cls-4" d="M77.92,41.63A19.84,19.84,0,0,1,70,43.4,17.46,17.46,0,0,1,61,40.86a34.07,34.07,0,0,0,5.33-4.31,29.61,29.61,0,0,1-5.79,3.79l-.23.11A71.74,71.74,0,0,1,52,34s0,0,0,0c-3.65-3.12-7.66-6.36-12.93-8.6-.59-.25-1.22-.49-1.89-.73a42.07,42.07,0,0,1,8.72-.9C60.64,23.71,73.19,31.17,77.92,41.63Z" transform="translate(-11.89 -23.71)"/><path class="cls-5" d="M79.93,50.85c0,7.86-4.19,14.94-10.9,19.9A39.15,39.15,0,0,0,62.4,67.1a34.16,34.16,0,0,0-5.73-1.86,45.09,45.09,0,0,0-18.29-.15,36.44,36.44,0,0,0-4.31-.73,50.61,50.61,0,0,0-16.78,1.17,23.28,23.28,0,0,1-5.4-14.68C11.89,42.14,17,34.38,25,29.42a80.68,80.68,0,0,1,9.59,7.45c4.78,4.12,9,7.54,15.25,7.57a19.14,19.14,0,0,0,8.66-2.17,20.3,20.3,0,0,0,4.17,2.14,15.78,15.78,0,0,0,5.38,1,19.63,19.63,0,0,0,10.16-3A21.91,21.91,0,0,1,79.93,50.85Z" transform="translate(-11.89 -23.71)"/><path class="cls-6" d="M84.5,37.48a33.7,33.7,0,0,1-6.27,4.89,19.63,19.63,0,0,1-10.16,3,15.78,15.78,0,0,1-5.38-1,20.3,20.3,0,0,1-4.17-2.14,19.14,19.14,0,0,1-8.66,2.17c-6.21,0-10.47-3.45-15.25-7.57A80.68,80.68,0,0,0,25,29.42c.79-.48,1.59-.94,2.42-1.37a110.47,110.47,0,0,1,9.19,7.4c4.59,3.88,9,7,15.17,7a18.88,18.88,0,0,0,5.68-.92c-3.37-2.41-6.58-5.62-10.56-8.65a43.61,43.61,0,0,0-8.08-5A38.28,38.28,0,0,0,33,25.73a40.24,40.24,0,0,1,4.19-1.12c.67.24,1.3.48,1.89.73,5.27,2.24,9.28,5.48,12.93,8.6,0,0,0,0,0,0a71.74,71.74,0,0,0,8.24,6.5l.23-.11a29.61,29.61,0,0,0,5.79-3.79A34.07,34.07,0,0,1,61,40.86,17.46,17.46,0,0,0,70,43.4a19.84,19.84,0,0,0,7.9-1.77A28.78,28.78,0,0,0,84.5,37.48Z" transform="translate(-11.89 -23.71)"/><path class="cls-7" d="M57.48,41.55a18.88,18.88,0,0,1-5.68.92c-6.19,0-10.58-3.14-15.17-7a110.47,110.47,0,0,0-9.19-7.4A37.15,37.15,0,0,1,33,25.73a38.28,38.28,0,0,1,5.84,2.2,43.61,43.61,0,0,1,8.08,5C50.9,35.93,54.11,39.14,57.48,41.55Z" transform="translate(-11.89 -23.71)"/><path class="cls-8" d="M60.49,40.34l-.23.11A71.74,71.74,0,0,1,52,34,17.76,17.76,0,0,1,60.49,40.34Z" transform="translate(-11.89 -23.71)"/><path class="cls-9" d="M57.48,41.55a18.88,18.88,0,0,1-5.68.92c-6.19,0-10.58-3.14-15.17-7a17.82,17.82,0,0,1,9.28-2.58c.34,0,.68,0,1,0C50.9,35.93,54.11,39.14,57.48,41.55Z" transform="translate(-11.89 -23.71)"/><path class="cls-10" d="M63.89,50.85a18,18,0,0,1-7.22,14.39,45.09,45.09,0,0,0-18.29-.15,36.44,36.44,0,0,0-4.31-.73,18,18,0,0,1,.54-27.49c4.78,4.12,9,7.54,15.25,7.57a19.14,19.14,0,0,0,8.66-2.17,20.3,20.3,0,0,0,4.17,2.14A17.67,17.67,0,0,1,63.89,50.85Z" transform="translate(-11.89 -23.71)"/><g class="cls-11"><path class="cls-6" d="M26.51,48.76H23.58v8.63h-3.3V48.76H17.34V46h9.17Z" transform="translate(-11.89 -23.71)"/><path class="cls-6" d="M33.19,48.55v3a2,2,0,0,0-1.87.43,2.4,2.4,0,0,0-.87,1.33,3.6,3.6,0,0,0-.05.64v3.43H27.28v-8.7H30.4v.52c.25-.47,1-.71,2.21-.71Z" transform="translate(-11.89 -23.71)"/><path class="cls-6" d="M41,49.22A3.17,3.17,0,0,1,42.36,52v5.38h-2.7l-.21-.49a3.72,3.72,0,0,1-2.46.73,4.5,4.5,0,0,1-2.22-.5A2.31,2.31,0,0,1,33.56,55a3,3,0,0,1,2-2.87,5,5,0,0,1,2.11-.5,4.42,4.42,0,0,1,1.63.32v-.24a.66.66,0,0,0-.39-.57,2.08,2.08,0,0,0-1.13-.27A5.82,5.82,0,0,0,34.5,52.1l-.37-2.4a5.6,5.6,0,0,1,4-1.26A5,5,0,0,1,41,49.22ZM37.82,55.4a1.42,1.42,0,0,0,1.48-.85v-.82a2.74,2.74,0,0,0-.64-.08,3,3,0,0,0-.92.15c-.53.18-.8.47-.8.86S37.23,55.4,37.82,55.4Z" transform="translate(-11.89 -23.71)"/><path class="cls-6" d="M52.74,48.69l-3.26,8.7H46.22l-3.28-8.7h3.31l1.6,5.6,1.58-5.6Z" transform="translate(-11.89 -23.71)"/><path class="cls-6" d="M56.27,45.64a1.54,1.54,0,0,1,.5,1.17,1.56,1.56,0,0,1-.5,1.16,1.65,1.65,0,0,1-2.81-1.16,1.59,1.59,0,0,1,.48-1.17,1.57,1.57,0,0,1,1.17-.5A1.53,1.53,0,0,1,56.27,45.64ZM53.56,57.39v-8.7h3.12v8.7Z" transform="translate(-11.89 -23.71)"/><path class="cls-6" d="M61.57,54.05a1.79,1.79,0,0,0,.14.86.5.5,0,0,0,.46.18,1.67,1.67,0,0,0,.63-.1v2.28a3.68,3.68,0,0,1-1.79.36,2.26,2.26,0,0,1-2.21-1.18,5.26,5.26,0,0,1-.34-2.22v-8.6h3.11Z" transform="translate(-11.89 -23.71)"/><path class="cls-6" d="M71.8,49.7a4.68,4.68,0,0,1,0,6.66,5.13,5.13,0,0,1-6.76,0,4.66,4.66,0,0,1,0-6.66,5.16,5.16,0,0,1,6.76,0Zm-4.52,2a2,2,0,0,0,0,2.56,1.61,1.61,0,0,0,2.29,0,2,2,0,0,0,0-2.56,1.63,1.63,0,0,0-2.29,0Z" transform="translate(-11.89 -23.71)"/></g><path class="cls-6" d="M69,70.75c-.7.53-1.45,1-2.21,1.5a41.15,41.15,0,0,0-4.66-2.58A39.65,39.65,0,0,0,54,66.88a48.66,48.66,0,0,0-13-1.07A31.73,31.73,0,0,1,44.18,67a37,37,0,0,1,3.57,1.76h0a62.74,62.74,0,0,1,10.16,7.53c-.92.27-1.86.52-2.82.73a51.14,51.14,0,0,0-11.15-7.44,39.67,39.67,0,0,0-9.53-3.08q-2.76.41-5.77,1.1,2.33-.77,4.5-1.32a53.69,53.69,0,0,0-15.37-.13l-.48-.58a50.61,50.61,0,0,1,16.78-1.17,36.44,36.44,0,0,1,4.31.73,45.09,45.09,0,0,1,18.29.15A34.16,34.16,0,0,1,62.4,67.1,39.15,39.15,0,0,1,69,70.75Z" transform="translate(-11.89 -23.71)"/><path class="cls-6" d="M86.8,40.64c-.16-1.75-.31-3.4-.47-5.13l-.46.33a10.79,10.79,0,0,1-3.43,1.78,1.23,1.23,0,0,1-1.18-.18c-.72-.52-1.47-1-2.21-1.53a1,1,0,0,1,1.07-.38,14,14,0,0,0,1.83.21.86.86,0,0,0,.56-.14q3.38-2.51,6.73-5a2.88,2.88,0,0,1,2.07-.6c.66.06.91.49.59,1.08a2.89,2.89,0,0,1-.69.79c-.66.53-1.35,1-2,1.52a.68.68,0,0,0-.32.53c-.26,1.79-.55,3.58-.8,5.37a1.13,1.13,0,0,1-.56.89C87.28,40.27,87.09,40.44,86.8,40.64Z" transform="translate(-11.89 -23.71)"/><path class="cls-6" d="M81.43,32.7c.52-.39.91-.92,1.69-.75s1.62.23,2.43.35a1.44,1.44,0,0,1,.27.05L84,33.68a.25.25,0,0,1-.22,0l-2.18-.86S81.51,32.77,81.43,32.7Z" transform="translate(-11.89 -23.71)"/></svg>