<?xml version="1.0" encoding="UTF-8"?>
<svg xmlns="http://www.w3.org/2000/svg" xmlns:xlink="http://www.w3.org/1999/xlink" width="px" height="px" viewBox="0 0 20 14" version="1.1">
<defs>
<linearGradient id="linear0" gradientUnits="userSpaceOnUse" x1="60.79" y1="40.84" x2="60.95" y2="40.84" gradientTransform="matrix(0.24871,0,0,0.257922,-2.924235,-6.115328)">
<stop offset="0" style="stop-color:rgb(76.470588%,58.039216%,100%);stop-opacity:1;"/>
<stop offset="1" style="stop-color:rgb(91.372549%,0%,86.666667%);stop-opacity:1;"/>
</linearGradient>
<linearGradient id="linear1" gradientUnits="userSpaceOnUse" x1="41.03" y1="71" x2="66.82" y2="71" gradientTransform="matrix(0.24871,0,0,0.257922,-2.924235,-6.115328)">
<stop offset="0" style="stop-color:rgb(76.470588%,58.039216%,100%);stop-opacity:1;"/>
<stop offset="1" style="stop-color:rgb(91.372549%,0%,86.666667%);stop-opacity:1;"/>
</linearGradient>
<linearGradient id="linear2" gradientUnits="userSpaceOnUse" x1="17.77" y1="71.8" x2="55.09" y2="71.8" gradientTransform="matrix(0.24871,0,0,0.257922,-2.924235,-6.115328)">
<stop offset="0" style="stop-color:rgb(76.470588%,58.039216%,100%);stop-opacity:1;"/>
<stop offset="1" style="stop-color:rgb(91.372549%,0%,86.666667%);stop-opacity:1;"/>
</linearGradient>
<linearGradient id="linear3" gradientUnits="userSpaceOnUse" x1="37.19" y1="33.55" x2="77.92" y2="33.55" gradientTransform="matrix(0.24871,0,0,0.257922,-2.924235,-6.115328)">
<stop offset="0" style="stop-color:rgb(76.470588%,58.039216%,100%);stop-opacity:1;"/>
<stop offset="1" style="stop-color:rgb(91.372549%,0%,86.666667%);stop-opacity:1;"/>
</linearGradient>
<linearGradient id="linear4" gradientUnits="userSpaceOnUse" x1="11.89" y1="50.09" x2="79.93" y2="50.09" gradientTransform="matrix(0.24871,0,0,0.257922,-2.924235,-6.115328)">
<stop offset="0" style="stop-color:rgb(76.470588%,58.039216%,100%);stop-opacity:1;"/>
<stop offset="1" style="stop-color:rgb(91.372549%,0%,86.666667%);stop-opacity:1;"/>
</linearGradient>
<linearGradient id="linear5" gradientUnits="userSpaceOnUse" x1="27.44" y1="34.1" x2="57.48" y2="34.1" gradientTransform="matrix(0.24871,0,0,0.257922,-2.924235,-6.115328)">
<stop offset="0" style="stop-color:rgb(76.470588%,58.039216%,100%);stop-opacity:1;"/>
<stop offset="1" style="stop-color:rgb(91.372549%,0%,86.666667%);stop-opacity:1;"/>
</linearGradient>
<linearGradient id="linear6" gradientUnits="userSpaceOnUse" x1="52.02" y1="37.2" x2="60.49" y2="37.2" gradientTransform="matrix(0.24871,0,0,0.257922,-2.924235,-6.115328)">
<stop offset="0" style="stop-color:rgb(76.470588%,58.039216%,100%);stop-opacity:1;"/>
<stop offset="1" style="stop-color:rgb(91.372549%,0%,86.666667%);stop-opacity:1;"/>
</linearGradient>
<linearGradient id="linear7" gradientUnits="userSpaceOnUse" x1="36.63" y1="37.67" x2="57.48" y2="37.67" gradientTransform="matrix(0.24871,0,0,0.257922,-2.924235,-6.115328)">
<stop offset="0" style="stop-color:rgb(76.470588%,58.039216%,100%);stop-opacity:1;"/>
<stop offset="1" style="stop-color:rgb(91.372549%,0%,86.666667%);stop-opacity:1;"/>
</linearGradient>
<linearGradient id="linear8" gradientUnits="userSpaceOnUse" x1="27.93" y1="51.05" x2="63.89" y2="51.05" gradientTransform="matrix(0.24871,0,0,0.257922,-2.924235,-6.115328)">
<stop offset="0" style="stop-color:rgb(76.470588%,58.039216%,100%);stop-opacity:1;"/>
<stop offset="1" style="stop-color:rgb(91.372549%,0%,86.666667%);stop-opacity:1;"/>
</linearGradient>
<filter id="alpha" filterUnits="objectBoundingBox" x="0%" y="0%" width="100%" height="100%">
  <feColorMatrix type="matrix" in="SourceGraphic" values="0 0 0 0 1 0 0 0 0 1 0 0 0 0 1 0 0 0 1 0"/>
</filter>
<mask id="mask0">
  <g filter="url(#alpha)">
<rect x="0" y="0" width="20" height="14" style="fill:rgb(0%,0%,0%);fill-opacity:0.901961;stroke:none;"/>
  </g>
</mask>
<clipPath id="clip1">
  <rect x="0" y="0" width="20" height="14"/>
</clipPath>
<g id="surface5" clip-path="url(#clip1)">
<path style=" stroke:none;fill-rule:nonzero;fill:rgb(100%,100%,100%);fill-opacity:1;" d="M 3.667969 6.460938 L 2.941406 6.460938 L 2.941406 8.6875 L 2.121094 8.6875 L 2.121094 6.460938 L 1.386719 6.460938 L 1.386719 5.75 L 3.667969 5.75 Z M 3.667969 6.460938 "/>
<path style=" stroke:none;fill-rule:nonzero;fill:rgb(100%,100%,100%);fill-opacity:1;" d="M 5.332031 6.40625 L 5.332031 7.179688 C 5.167969 7.132812 4.992188 7.175781 4.867188 7.292969 C 4.757812 7.378906 4.679688 7.496094 4.648438 7.632812 C 4.640625 7.6875 4.636719 7.746094 4.636719 7.800781 L 4.636719 8.683594 L 3.859375 8.683594 L 3.859375 6.441406 L 4.636719 6.441406 L 4.636719 6.574219 C 4.699219 6.453125 4.886719 6.390625 5.1875 6.390625 Z M 5.332031 6.40625 "/>
<path style=" stroke:none;fill-rule:nonzero;fill:rgb(100%,100%,100%);fill-opacity:1;" d="M 7.273438 6.578125 C 7.5 6.742188 7.625 7.011719 7.609375 7.296875 L 7.609375 8.683594 L 6.941406 8.683594 L 6.886719 8.558594 C 6.710938 8.695312 6.496094 8.761719 6.277344 8.746094 C 6.082031 8.753906 5.894531 8.707031 5.722656 8.617188 C 5.53125 8.507812 5.414062 8.296875 5.421875 8.070312 C 5.417969 7.738281 5.617188 7.441406 5.917969 7.332031 C 6.082031 7.246094 6.261719 7.203125 6.445312 7.203125 C 6.582031 7.203125 6.722656 7.230469 6.851562 7.285156 L 6.851562 7.222656 C 6.847656 7.15625 6.808594 7.101562 6.753906 7.074219 C 6.667969 7.023438 6.570312 7 6.472656 7.003906 C 6.175781 7.023438 5.890625 7.132812 5.65625 7.324219 L 5.5625 6.703125 C 5.84375 6.464844 6.199219 6.347656 6.558594 6.378906 C 6.8125 6.367188 7.058594 6.4375 7.273438 6.578125 Z M 6.480469 8.171875 C 6.636719 8.195312 6.789062 8.105469 6.851562 7.953125 L 6.851562 7.742188 C 6.796875 7.730469 6.746094 7.722656 6.691406 7.722656 C 6.613281 7.722656 6.535156 7.734375 6.460938 7.761719 C 6.332031 7.808594 6.261719 7.882812 6.261719 7.984375 C 6.261719 8.082031 6.335938 8.171875 6.480469 8.171875 Z M 6.480469 8.171875 "/>
<path style=" stroke:none;fill-rule:nonzero;fill:rgb(100%,100%,100%);fill-opacity:1;" d="M 10.191406 6.441406 L 9.382812 8.6875 L 8.570312 8.6875 L 7.753906 6.441406 L 8.578125 6.441406 L 8.976562 7.886719 L 9.371094 6.441406 Z M 10.191406 6.441406 "/>
<path style=" stroke:none;fill-rule:nonzero;fill:rgb(100%,100%,100%);fill-opacity:1;" d="M 11.070312 5.65625 C 11.152344 5.734375 11.199219 5.84375 11.195312 5.957031 C 11.195312 6.070312 11.152344 6.179688 11.070312 6.257812 C 10.953125 6.378906 10.777344 6.414062 10.625 6.347656 C 10.472656 6.28125 10.375 6.128906 10.371094 5.957031 C 10.371094 5.84375 10.414062 5.734375 10.492188 5.65625 C 10.566406 5.574219 10.671875 5.527344 10.78125 5.527344 C 10.890625 5.523438 10.996094 5.570312 11.070312 5.65625 Z M 10.398438 8.6875 L 10.398438 6.441406 L 11.171875 6.441406 L 11.171875 8.6875 Z M 10.398438 8.6875 "/>
<path style=" stroke:none;fill-rule:nonzero;fill:rgb(100%,100%,100%);fill-opacity:1;" d="M 12.390625 7.824219 C 12.382812 7.902344 12.394531 7.976562 12.421875 8.046875 C 12.453125 8.082031 12.496094 8.101562 12.539062 8.09375 C 12.589844 8.09375 12.644531 8.085938 12.695312 8.066406 L 12.695312 8.65625 C 12.554688 8.726562 12.402344 8.757812 12.25 8.75 C 12.023438 8.773438 11.808594 8.652344 11.699219 8.445312 C 11.632812 8.261719 11.601562 8.066406 11.617188 7.871094 L 11.617188 5.652344 L 12.390625 5.652344 Z M 12.390625 7.824219 "/>
<path style=" stroke:none;fill-rule:nonzero;fill:rgb(100%,100%,100%);fill-opacity:1;" d="M 14.933594 6.703125 C 15.15625 6.929688 15.277344 7.238281 15.277344 7.5625 C 15.277344 7.886719 15.15625 8.195312 14.933594 8.421875 C 14.453125 8.859375 13.734375 8.859375 13.25 8.421875 C 13.027344 8.195312 12.902344 7.886719 12.902344 7.5625 C 12.902344 7.238281 13.027344 6.929688 13.25 6.703125 C 13.734375 6.269531 14.449219 6.269531 14.933594 6.703125 Z M 13.808594 7.21875 C 13.65625 7.410156 13.65625 7.6875 13.808594 7.878906 C 13.882812 7.957031 13.988281 8.003906 14.09375 8.003906 C 14.199219 8.003906 14.304688 7.957031 14.378906 7.878906 C 14.53125 7.6875 14.53125 7.410156 14.378906 7.21875 C 14.21875 7.058594 13.96875 7.058594 13.808594 7.21875 Z M 13.808594 7.21875 "/>
</g>
</defs>
<g id="surface1">
<path style=" stroke:none;fill-rule:nonzero;fill:url(#linear0);" d="M 12.246094 4.421875 L 12.230469 4.421875 L 12.207031 4.382812 Z M 12.246094 4.421875 "/>
<path style=" stroke:none;fill-rule:nonzero;fill:url(#linear1);" d="M 13.695312 12.519531 C 13.003906 12.964844 12.257812 13.308594 11.480469 13.550781 C 10.703125 12.816406 9.855469 12.167969 8.953125 11.609375 C 8.664062 11.445312 8.367188 11.296875 8.0625 11.164062 C 7.804688 11.046875 7.542969 10.945312 7.273438 10.859375 C 8.359375 10.800781 9.445312 10.890625 10.507812 11.132812 C 11.203125 11.296875 11.882812 11.539062 12.53125 11.855469 C 12.933594 12.050781 13.320312 12.273438 13.695312 12.519531 Z M 13.695312 12.519531 "/>
<path style=" stroke:none;fill-rule:nonzero;fill:url(#linear2);" d="M 10.777344 13.746094 C 10.027344 13.917969 9.261719 14.003906 8.492188 14.003906 C 5.585938 14.003906 3.023438 12.789062 1.496094 10.941406 C 2.765625 10.761719 4.050781 10.773438 5.316406 10.972656 C 4.957031 11.070312 4.585938 11.183594 4.199219 11.316406 C 4.695312 11.195312 5.175781 11.101562 5.632812 11.03125 C 6.453125 11.191406 7.25 11.457031 8.003906 11.824219 C 9.003906 12.335938 9.9375 12.980469 10.777344 13.746094 Z M 10.777344 13.746094 "/>
<path style=" stroke:none;fill-rule:nonzero;fill:url(#linear3);" d="M 16.457031 4.621094 C 15.835938 4.914062 15.164062 5.070312 14.484375 5.078125 C 13.695312 5.074219 12.921875 4.847656 12.246094 4.421875 C 12.722656 4.101562 13.167969 3.726562 13.574219 3.3125 C 13.132812 3.695312 12.648438 4.023438 12.132812 4.289062 L 12.074219 4.316406 C 11.347656 3.816406 10.65625 3.261719 10.007812 2.652344 C 9.101562 1.847656 8.105469 1.011719 6.792969 0.4375 C 6.644531 0.371094 6.488281 0.308594 6.324219 0.246094 C 7.035156 0.09375 7.761719 0.015625 8.492188 0.015625 C 12.15625 0 15.277344 1.925781 16.457031 4.621094 Z M 16.457031 4.621094 "/>
<path style=" stroke:none;fill-rule:nonzero;fill:url(#linear4);" d="M 16.957031 7 C 16.957031 9.027344 15.914062 10.851562 14.246094 12.132812 C 13.726562 11.765625 13.171875 11.449219 12.59375 11.191406 C 12.136719 10.988281 11.65625 10.828125 11.171875 10.710938 C 9.671875 10.375 8.125 10.363281 6.621094 10.671875 C 6.269531 10.585938 5.910156 10.523438 5.550781 10.484375 C 4.152344 10.34375 2.742188 10.445312 1.375 10.785156 C 0.519531 9.722656 0.046875 8.386719 0.03125 7 C 0.03125 4.753906 1.304688 2.753906 3.292969 1.472656 C 4.132812 2.050781 4.929688 2.691406 5.679688 3.394531 C 6.867188 4.457031 7.917969 5.339844 9.472656 5.347656 C 10.222656 5.339844 10.960938 5.148438 11.625 4.785156 C 11.949219 5.011719 12.296875 5.195312 12.664062 5.339844 C 13.089844 5.503906 13.542969 5.59375 14 5.597656 C 14.894531 5.585938 15.769531 5.316406 16.527344 4.824219 C 16.808594 5.511719 16.953125 6.253906 16.957031 7 Z M 16.957031 7 "/>
<path style=" stroke:none;fill-rule:nonzero;fill:rgb(100%,100%,100%);fill-opacity:1;" d="M 18.089844 3.550781 C 17.621094 4.035156 17.097656 4.457031 16.53125 4.8125 C 15.773438 5.304688 14.898438 5.574219 14.003906 5.585938 C 13.546875 5.582031 13.09375 5.496094 12.667969 5.328125 C 12.300781 5.1875 11.953125 5 11.628906 4.777344 C 10.964844 5.136719 10.226562 5.328125 9.476562 5.335938 C 7.933594 5.335938 6.871094 4.445312 5.683594 3.382812 C 4.933594 2.6875 4.136719 2.046875 3.292969 1.472656 C 3.488281 1.347656 3.6875 1.230469 3.894531 1.121094 C 4.691406 1.714844 5.453125 2.351562 6.179688 3.027344 C 7.324219 4.027344 8.417969 4.832031 9.953125 4.832031 C 10.433594 4.828125 10.910156 4.75 11.367188 4.597656 C 10.527344 3.972656 9.730469 3.148438 8.742188 2.363281 C 8.117188 1.859375 7.445312 1.429688 6.730469 1.074219 C 6.261719 0.851562 5.78125 0.664062 5.285156 0.519531 C 5.625 0.40625 5.972656 0.308594 6.324219 0.230469 C 6.492188 0.292969 6.648438 0.355469 6.796875 0.421875 C 8.105469 1 9.101562 1.832031 10.011719 2.636719 C 10.652344 3.25 11.339844 3.808594 12.0625 4.316406 L 12.117188 4.285156 C 12.632812 4.019531 13.117188 3.691406 13.558594 3.308594 C 13.15625 3.726562 12.71875 4.097656 12.246094 4.421875 C 12.921875 4.847656 13.695312 5.074219 14.484375 5.078125 C 15.164062 5.066406 15.832031 4.914062 16.449219 4.621094 C 17.042969 4.34375 17.59375 3.984375 18.089844 3.550781 Z M 18.089844 3.550781 "/>
<path style=" stroke:none;fill-rule:nonzero;fill:url(#linear5);" d="M 11.371094 4.601562 C 10.914062 4.753906 10.4375 4.835938 9.957031 4.839844 C 8.417969 4.839844 7.328125 4.027344 6.1875 3.03125 C 5.457031 2.355469 4.695312 1.71875 3.898438 1.125 C 4.34375 0.886719 4.808594 0.683594 5.285156 0.519531 C 5.78125 0.667969 6.265625 0.859375 6.734375 1.089844 C 7.449219 1.441406 8.121094 1.875 8.746094 2.378906 C 9.734375 3.152344 10.535156 3.980469 11.371094 4.601562 Z M 11.371094 4.601562 "/>
<path style=" stroke:none;fill-rule:nonzero;fill:url(#linear6);" d="M 12.121094 4.289062 L 12.0625 4.316406 C 11.339844 3.816406 10.652344 3.257812 10.007812 2.652344 C 10.855469 2.964844 11.59375 3.535156 12.121094 4.289062 Z M 12.121094 4.289062 "/>
<path style=" stroke:none;fill-rule:nonzero;fill:url(#linear7);" d="M 11.371094 4.601562 C 10.914062 4.753906 10.4375 4.835938 9.957031 4.839844 C 8.417969 4.839844 7.328125 4.027344 6.1875 3.03125 C 6.882812 2.597656 7.679688 2.367188 8.492188 2.367188 C 8.578125 2.367188 8.664062 2.367188 8.742188 2.367188 C 9.734375 3.152344 10.535156 3.980469 11.371094 4.601562 Z M 11.371094 4.601562 "/>
<path style=" stroke:none;fill-rule:nonzero;fill:url(#linear8);" d="M 12.964844 7 C 12.964844 8.460938 12.296875 9.835938 11.171875 10.710938 C 9.671875 10.375 8.125 10.363281 6.621094 10.671875 C 6.269531 10.585938 5.910156 10.523438 5.550781 10.484375 C 4.558594 9.582031 4.003906 8.273438 4.03125 6.90625 C 4.054688 5.539062 4.660156 4.253906 5.683594 3.394531 C 6.871094 4.457031 7.921875 5.339844 9.476562 5.347656 C 10.226562 5.339844 10.964844 5.148438 11.628906 4.785156 C 11.953125 5.011719 12.300781 5.195312 12.667969 5.339844 C 12.867188 5.867188 12.96875 6.433594 12.964844 7 Z M 12.964844 7 "/>
<use xlink:href="#surface5" mask="url(#mask0)"/>
<path style=" stroke:none;fill-rule:nonzero;fill:rgb(100%,100%,100%);fill-opacity:1;" d="M 14.238281 12.132812 C 14.0625 12.269531 13.875 12.390625 13.6875 12.519531 C 13.316406 12.273438 12.929688 12.050781 12.527344 11.855469 C 11.882812 11.539062 11.203125 11.296875 10.507812 11.132812 C 9.445312 10.890625 8.359375 10.800781 7.273438 10.859375 C 7.542969 10.945312 7.804688 11.046875 8.0625 11.164062 C 8.367188 11.300781 8.664062 11.453125 8.953125 11.621094 C 9.855469 12.175781 10.703125 12.828125 11.480469 13.5625 C 11.25 13.632812 11.015625 13.695312 10.777344 13.75 C 9.9375 12.988281 9.003906 12.339844 8.003906 11.832031 C 7.25 11.464844 6.453125 11.195312 5.632812 11.035156 C 5.175781 11.105469 4.699219 11.203125 4.199219 11.320312 C 4.585938 11.1875 4.957031 11.074219 5.316406 10.980469 C 4.050781 10.777344 2.765625 10.765625 1.496094 10.945312 L 1.375 10.796875 C 2.742188 10.457031 4.152344 10.351562 5.550781 10.496094 C 5.910156 10.535156 6.269531 10.597656 6.621094 10.683594 C 8.125 10.375 9.671875 10.386719 11.171875 10.722656 C 11.65625 10.835938 12.132812 10.992188 12.59375 11.191406 C 13.171875 11.449219 13.71875 11.765625 14.238281 12.132812 Z M 14.238281 12.132812 "/>
<path style=" stroke:none;fill-rule:nonzero;fill:rgb(100%,100%,100%);fill-opacity:1;" d="M 18.664062 4.367188 C 18.625 3.914062 18.585938 3.488281 18.546875 3.042969 L 18.433594 3.128906 C 18.175781 3.332031 17.886719 3.488281 17.578125 3.585938 C 17.480469 3.625 17.371094 3.609375 17.285156 3.542969 C 17.105469 3.40625 16.921875 3.285156 16.734375 3.148438 C 16.796875 3.058594 16.902344 3.019531 17.003906 3.046875 C 17.152344 3.078125 17.304688 3.09375 17.457031 3.101562 C 17.507812 3.109375 17.554688 3.09375 17.597656 3.066406 C 18.15625 2.636719 18.714844 2.207031 19.269531 1.777344 C 19.417969 1.660156 19.601562 1.601562 19.785156 1.621094 C 19.949219 1.636719 20.011719 1.75 19.933594 1.902344 C 19.886719 1.980469 19.828125 2.046875 19.761719 2.105469 C 19.597656 2.242188 19.425781 2.363281 19.261719 2.496094 C 19.21875 2.527344 19.1875 2.578125 19.183594 2.632812 C 19.117188 3.09375 19.046875 3.558594 18.984375 4.019531 C 18.976562 4.113281 18.925781 4.199219 18.84375 4.246094 C 18.785156 4.269531 18.734375 4.316406 18.664062 4.367188 Z M 18.664062 4.367188 "/>
<path style=" stroke:none;fill-rule:nonzero;fill:rgb(100%,100%,100%);fill-opacity:1;" d="M 17.328125 2.320312 C 17.457031 2.21875 17.554688 2.082031 17.75 2.125 C 17.941406 2.167969 18.152344 2.183594 18.351562 2.214844 C 18.375 2.21875 18.398438 2.222656 18.421875 2.226562 L 17.96875 2.570312 C 17.949219 2.582031 17.929688 2.582031 17.914062 2.570312 L 17.371094 2.351562 C 17.371094 2.351562 17.347656 2.335938 17.328125 2.320312 Z M 17.328125 2.320312 "/>
</g>
</svg>
