<svg id="visual" viewBox="0 0 1000 450" width="1000" height="450" xmlns="http://www.w3.org/2000/svg" xmlns:xlink="http://www.w3.org/1999/xlink" version="1.1"><g><g transform="translate(429 284)"><path d="M0 -120.9L120.9 0L0 120.9L-120.9 0Z" fill="#FF00C7"></path></g><g transform="translate(721 370)"><path d="M0 -113L113 0L0 113L-113 0Z" fill="#FF00C7"></path></g><g transform="translate(122 101)"><path d="M0 -91L91 0L0 91L-91 0Z" fill="#FF00C7"></path></g><g transform="translate(982 142)"><path d="M0 -40L40 0L0 40L-40 0Z" fill="#FF00C7"></path></g><g transform="translate(353 10)"><path d="M0 -36L36 0L0 36L-36 0Z" fill="#FF00C7"></path></g><g transform="translate(2 388)"><path d="M0 -84L84 0L0 84L-84 0Z" fill="#FF00C7"></path></g><g transform="translate(607 111)"><path d="M0 -20L20 0L0 20L-20 0Z" fill="#FF00C7"></path></g><g transform="translate(992 404)"><path d="M0 -54L54 0L0 54L-54 0Z" fill="#FF00C7"></path></g></g></svg>