<svg width="253" height="188" viewBox="0 0 253 188" fill="none" xmlns="http://www.w3.org/2000/svg">
<path d="M252.507 165.122H0.459122V165.248H252.507V165.122Z" fill="#EBEBEB"/>
<path d="M227.252 173.237H210.556V173.363H227.252V173.237Z" fill="#EBEBEB"/>
<path d="M167.426 174.608H163.045V174.735H167.426V174.608Z" fill="#EBEBEB"/>
<path d="M210.052 168.556H200.379V168.683H210.052V168.556Z" fill="#EBEBEB"/>
<path d="M48.6759 169.404H26.904V169.53H48.6759V169.404Z" fill="#EBEBEB"/>
<path d="M56.3584 169.404H53.1674V169.53H56.3584V169.404Z" fill="#EBEBEB"/>
<path d="M113.956 171.532H66.7326V171.658H113.956V171.532Z" fill="#EBEBEB"/>
<path d="M119.93 142.628H22.594C21.8315 142.627 21.1006 142.323 20.5619 141.783C20.0232 141.243 19.7206 140.511 19.7206 139.748V2.85458C19.7273 2.09606 20.0328 1.37079 20.5708 0.836311C21.1088 0.301828 21.8358 0.00129938 22.594 0H119.93C120.693 0 121.425 0.303406 121.965 0.843473C122.505 1.38354 122.808 2.11603 122.808 2.8798V139.748C122.808 140.512 122.505 141.245 121.965 141.785C121.425 142.325 120.693 142.628 119.93 142.628ZM22.594 0.100869C21.8649 0.102205 21.1661 0.392916 20.651 0.909192C20.136 1.42547 19.8467 2.12512 19.8467 2.85458V139.748C19.8467 140.478 20.136 141.177 20.651 141.694C21.1661 142.21 21.8649 142.501 22.594 142.502H119.93C120.659 142.501 121.359 142.21 121.875 141.694C122.391 141.178 122.681 140.478 122.682 139.748V2.85458C122.681 2.12466 122.391 1.42502 121.875 0.908884C121.359 0.392752 120.659 0.102202 119.93 0.100869H22.594Z" fill="#EBEBEB"/>
<path d="M228.971 142.628H131.63C130.867 142.627 130.136 142.323 129.596 141.783C129.057 141.243 128.753 140.512 128.752 139.748V2.85458C128.76 2.0956 129.066 1.37034 129.605 0.835995C130.144 0.301652 130.871 0.00128521 131.63 0H228.971C229.728 0.00262485 230.454 0.30374 230.991 0.83808C231.528 1.37242 231.833 2.09693 231.839 2.85458V139.748C231.839 140.51 231.537 141.241 231 141.781C230.462 142.321 229.733 142.625 228.971 142.628ZM131.63 0.100869C130.9 0.102202 130.201 0.392752 129.685 0.908884C129.169 1.42502 128.879 2.12466 128.878 2.85458V139.748C128.879 140.478 129.169 141.178 129.685 141.694C130.201 142.21 130.9 142.501 131.63 142.502H228.971C229.7 142.501 230.4 142.21 230.916 141.694C231.432 141.178 231.722 140.478 231.723 139.748V2.85458C231.722 2.12466 231.432 1.42502 230.916 0.908884C230.4 0.392752 229.7 0.102202 228.971 0.100869H131.63Z" fill="#EBEBEB"/>
<path d="M75.7862 72.3682H72.3936V165.248H75.7862V72.3682Z" fill="#F5F5F5"/>
<path d="M89.2002 84.1596H85.8076V165.248H89.2002V84.1596Z" fill="#F5F5F5"/>
<path d="M102.488 95.9512H99.0956V165.248H102.488V95.9512Z" fill="#F5F5F5"/>
<path d="M115.781 88.0884H112.389V165.248H115.781V88.0884Z" fill="#F5F5F5"/>
<path d="M129.074 84.1596H125.682V165.248H129.074V84.1596Z" fill="#F5F5F5"/>
<path d="M142.362 76.2969H138.97V165.248H142.362V76.2969Z" fill="#F5F5F5"/>
<path d="M155.655 80.2308H152.263V165.248H155.655V80.2308Z" fill="#F5F5F5"/>
<path d="M168.948 76.2969H165.556V165.248H168.948V76.2969Z" fill="#F5F5F5"/>
<path d="M182.236 68.4342H178.844V165.243H182.236V68.4342Z" fill="#F5F5F5"/>
<path d="M195.529 60.5765H192.137V165.248H195.529V60.5765Z" fill="#F5F5F5"/>
<path d="M208.817 52.7139H205.425V165.248H208.817V52.7139Z" fill="#F5F5F5"/>
<path d="M100.774 90.4286C100.585 90.421 100.406 90.3438 100.27 90.2117L71.8694 62.5082C71.7257 62.3677 71.6436 62.1759 71.6413 61.9749C71.6389 61.7739 71.7164 61.5802 71.8568 61.4365C71.9972 61.2927 72.1889 61.2106 72.3898 61.2082C72.5907 61.2058 72.7843 61.2834 72.928 61.4238L100.87 88.6836L140.225 59.936C140.377 59.8273 140.564 59.7786 140.75 59.799C140.936 59.8195 141.108 59.9078 141.233 60.047L154.118 74.6427L207.451 44.0694C207.537 44.0201 207.633 43.9882 207.731 43.9757C207.83 43.9632 207.93 43.9703 208.026 43.9965C208.122 44.0227 208.212 44.0676 208.291 44.1286C208.369 44.1896 208.435 44.2654 208.484 44.3519C208.534 44.4383 208.566 44.5336 208.578 44.6323C208.591 44.7311 208.584 44.8313 208.557 44.9273C208.531 45.0233 208.486 45.1132 208.425 45.1919C208.364 45.2705 208.289 45.3364 208.202 45.3858L154.334 76.2717C154.183 76.3572 154.007 76.3884 153.836 76.3599C153.664 76.3315 153.507 76.2452 153.392 76.1153L140.558 61.5903L101.238 90.2823C101.104 90.3808 100.941 90.4323 100.774 90.4286Z" fill="#F0F0F0"/>
<path d="M97.5732 164.668L72.7868 66.8708L74.0269 61.9837H72.7364V34.0532H69.4094V61.9837H68.1189L69.359 66.8708L44.5676 164.668H48.0005L69.4094 80.2006V165.182H72.7364V80.2006L94.1454 164.668H97.5732Z" fill="#E0E0E0"/>
<path d="M89.7489 65.8992C92.1836 55.5787 85.7949 45.2377 75.4795 42.8018C65.164 40.366 54.828 46.7577 52.3934 57.0782C49.9587 67.3987 56.3473 77.7397 66.6628 80.1756C76.9782 82.6114 87.3142 76.2197 89.7489 65.8992Z" fill="#E6E6E6"/>
<path d="M71.0729 77.8856C80.1211 77.8856 87.456 70.547 87.456 61.4945C87.456 52.4419 80.1211 45.1033 71.0729 45.1033C62.0248 45.1033 54.6898 52.4419 54.6898 61.4945C54.6898 70.547 62.0248 77.8856 71.0729 77.8856Z" fill="#F5F5F5"/>
<path d="M71.0729 74.3249C78.1555 74.3249 83.8971 68.5805 83.8971 61.4945C83.8971 54.4084 78.1555 48.664 71.0729 48.664C63.9903 48.664 58.2487 54.4084 58.2487 61.4945C58.2487 68.5805 63.9903 74.3249 71.0729 74.3249Z" fill="#E6E6E6"/>
<path d="M75.0977 71.2074C80.4605 68.9849 83.0072 62.8337 80.7859 57.4682C78.5645 52.1027 72.4162 49.5547 67.0534 51.7772C61.6905 53.9997 59.1438 60.1509 61.3652 65.5164C63.5865 70.8819 69.7348 73.4299 75.0977 71.2074Z" fill="#F5F5F5"/>
<path d="M78.1703 63.165C79.0957 59.2423 76.6675 55.3118 72.7467 54.3859C68.8259 53.4601 64.8973 55.8895 63.9719 59.8122C63.0465 63.7349 65.4748 67.6655 69.3956 68.5913C73.3164 69.5171 77.245 67.0877 78.1703 63.165Z" fill="#E6E6E6"/>
<path d="M73.0798 66.3335C75.7523 65.226 77.0213 62.1607 75.9144 59.4869C74.8074 56.8132 71.7436 55.5435 69.0712 56.651C66.3988 57.7585 65.1297 60.8238 66.2367 63.4976C67.3436 66.1713 70.4074 67.441 73.0798 66.3335Z" fill="#F5F5F5"/>
<path d="M73.4472 61.4944C73.4472 61.9655 73.3075 62.4259 73.0458 62.8175C72.7842 63.2091 72.4123 63.5142 71.9772 63.6942C71.5422 63.8742 71.0635 63.9211 70.6018 63.8288C70.1401 63.7366 69.7162 63.5094 69.3836 63.1759C69.0511 62.8425 68.8249 62.4179 68.7336 61.9558C68.6424 61.4937 68.6902 61.0149 68.8711 60.58C69.0519 60.1451 69.3577 59.7737 69.7496 59.5127C70.1416 59.2517 70.6021 59.113 71.0729 59.114C71.3851 59.114 71.6943 59.1756 71.9827 59.2953C72.2711 59.415 72.533 59.5904 72.7536 59.8115C72.9741 60.0326 73.1489 60.2951 73.2679 60.5839C73.3869 60.8726 73.4478 61.1821 73.4472 61.4944Z" fill="#E6E6E6"/>
<path d="M46.4428 45.6581L46.962 49.128L43.3527 50.3435L46.962 52.2398L50.5612 50.9739L49.9311 47.5545L46.4428 45.6581Z" fill="#E6E6E6"/>
<path d="M71.0729 61.9988C70.9925 61.9978 70.9132 61.9789 70.841 61.9433L45.0162 48.6993C44.9013 48.6361 44.8154 48.5307 44.7769 48.4053C44.7385 48.2799 44.7503 48.1444 44.81 48.0276C44.8697 47.9108 44.9725 47.8219 45.0966 47.7797C45.2208 47.7375 45.3565 47.7453 45.4749 47.8016L71.2998 61.0254C71.4185 61.0859 71.5085 61.1909 71.55 61.3175C71.5916 61.4442 71.5814 61.5821 71.5216 61.7012C71.4825 61.7882 71.4197 61.8623 71.3403 61.9149C71.2609 61.9676 71.1682 61.9967 71.0729 61.9988Z" fill="#E0E0E0"/>
<path d="M106.612 39.9238C106.609 39.2298 106.77 38.545 107.08 37.9244C107.39 37.3038 107.842 36.7648 108.399 36.3507C108.955 35.9366 109.601 35.659 110.285 35.5403C110.968 35.4216 111.67 35.465 112.333 35.6671C112.136 34.3289 112.23 32.9639 112.608 31.6652C112.985 30.3665 113.639 29.1645 114.523 28.1411C115.407 27.1178 116.501 26.2971 117.731 25.7351C118.96 25.1731 120.297 24.8829 121.649 24.8843C122.229 24.8841 122.808 24.9381 123.378 25.0457C124.306 23.5203 125.704 22.3381 127.362 21.6775C129.02 21.0169 130.848 20.9136 132.57 21.3833C134.292 21.853 135.814 22.8701 136.908 24.2813C138.001 25.6924 138.606 27.4211 138.632 29.2065H138.773C140.784 29.2065 142.712 30.0056 144.134 31.4282C145.556 32.8507 146.355 34.78 146.355 36.7918C146.355 38.8035 145.556 40.7329 144.134 42.1554C142.712 43.5779 140.784 44.3771 138.773 44.3771H110.927C109.769 44.3442 108.67 43.8602 107.864 43.0283C107.058 42.1964 106.609 41.0824 106.612 39.9238Z" fill="#F0F0F0"/>
<path d="M185.699 37.4827C185.699 36.9143 185.925 36.3691 186.327 35.9671C186.729 35.5651 187.273 35.3393 187.842 35.3393C188.05 35.3412 188.257 35.3717 188.457 35.4301C188.425 35.213 188.408 34.9939 188.406 34.7744C188.406 34.1072 188.553 33.4482 188.836 32.8441C189.119 32.2401 189.532 31.706 190.045 31.2798C190.558 30.8536 191.159 30.5459 191.804 30.3784C192.45 30.2109 193.125 30.1879 193.78 30.311C194.229 29.5776 194.904 29.01 195.704 28.6936C196.503 28.3772 197.383 28.3292 198.212 28.5567C199.042 28.7843 199.774 29.2751 200.3 29.9553C200.827 30.6356 201.118 31.4683 201.13 32.3284H201.195C202.165 32.3284 203.094 32.7136 203.78 33.3993C204.465 34.085 204.85 35.0151 204.85 35.9848C204.85 36.9546 204.465 37.8846 203.78 38.5704C203.094 39.2561 202.165 39.6413 201.195 39.6413H187.781C187.22 39.6268 186.688 39.3923 186.298 38.9885C185.909 38.5847 185.694 38.0439 185.699 37.4827Z" fill="#F0F0F0"/>
<path d="M48.2071 40.1508C48.2071 39.9616 48.2444 39.7742 48.3169 39.5995C48.3895 39.4248 48.4957 39.2661 48.6297 39.1326C48.7636 38.999 48.9226 38.8933 49.0975 38.8213C49.2724 38.7494 49.4597 38.7127 49.6488 38.7134C49.7888 38.713 49.9281 38.7334 50.0622 38.7739C50.0402 38.6269 50.0284 38.4787 50.0269 38.3301C50.0335 37.5296 50.3543 36.7637 50.9201 36.1976C51.4859 35.6315 52.2513 35.3106 53.0515 35.304C53.241 35.3048 53.43 35.3233 53.6161 35.3595C53.9152 34.8636 54.3679 34.4788 54.9054 34.2635C55.4428 34.0482 56.0358 34.0141 56.5944 34.1663C57.153 34.3186 57.6467 34.6489 58.0008 35.1073C58.3548 35.5656 58.5498 36.1269 58.5562 36.7061H58.6016C59.2341 36.7348 59.8312 37.0063 60.2687 37.4643C60.7061 37.9222 60.9502 38.5313 60.9502 39.1648C60.9502 39.7982 60.7061 40.4073 60.2687 40.8653C59.8312 41.3232 59.2341 41.5948 58.6016 41.6234H49.6085C49.4198 41.6189 49.2339 41.5771 49.0613 41.5006C48.8888 41.4241 48.733 41.3144 48.6028 41.1776C48.4727 41.0408 48.3707 40.8798 48.3028 40.7036C48.2349 40.5274 48.2024 40.3395 48.2071 40.1508Z" fill="#F0F0F0"/>
<path d="M126.483 187.898C180.463 187.898 224.222 185.342 224.222 182.189C224.222 179.036 180.463 176.48 126.483 176.48C72.5033 176.48 28.744 179.036 28.744 182.189C28.744 185.342 72.5033 187.898 126.483 187.898Z" fill="#F5F5F5"/>
<path d="M70.216 86.0206L73.6741 84.0436C73.6741 84.0436 75.0049 81.991 75.4031 81.8951C75.8014 81.7993 80.187 81.8951 80.187 81.8951C80.187 81.8951 79.5266 84.7396 79.4561 85.2994C79.3855 85.8593 75.2015 85.2994 75.2015 85.2994L71.814 87.3168L70.216 86.0206Z" fill="#EBB376"/>
<path d="M38.0092 178.033L34.3898 177.312C34.3252 177.311 34.2624 177.333 34.2119 177.374C34.1615 177.414 34.1264 177.47 34.1126 177.534L33.1397 181.155C33.1192 181.279 33.1455 181.406 33.2135 181.511C33.2816 181.616 33.3864 181.693 33.5076 181.725H33.6135C34.8939 181.725 35.8265 181.624 37.4295 181.624C38.4377 181.624 41.4018 181.73 42.7679 181.73C44.134 181.73 44.3155 180.378 43.7761 180.257C41.2556 179.707 39.3804 178.951 38.5789 178.24C38.4236 178.098 38.2189 178.024 38.0092 178.033Z" fill="#263238"/>
<path d="M82.3042 177.912H78.352C78.2872 177.911 78.2239 177.932 78.1733 177.973C78.1226 178.013 78.0877 178.07 78.0748 178.134L77.4295 181.059C77.4106 181.183 77.4383 181.309 77.5072 181.413C77.5762 181.518 77.6814 181.593 77.8026 181.624H77.9084C79.1888 181.599 80.1164 181.523 81.7244 181.523C82.7326 181.523 85.6967 181.624 87.0628 181.624C88.4289 181.624 88.6053 180.277 88.0458 180.151C85.5253 179.606 83.6501 178.845 82.8486 178.134C82.7774 178.062 82.6925 178.005 82.599 177.967C82.5054 177.929 82.4051 177.91 82.3042 177.912Z" fill="#263238"/>
<path d="M44.9859 111.293L61.7219 107.047C65.5178 115.338 79.4459 149.381 82.8234 177.705L77.1573 179.142C77.1573 179.142 67.1258 137.373 58.7125 125.178C58.7125 125.178 58.2638 143.717 57.3514 146.416C56.6003 148.635 39.3753 178.325 39.3753 178.325L33.7799 177.695C33.7799 177.695 47.8442 147.394 48.6709 143.617C49.2556 141.044 46.6948 122.152 46.6948 122.152C46.2462 120.467 45.5707 113.492 45.5707 113.492C45.5707 113.492 45.0666 111.641 44.9859 111.293Z" fill="#FF327B"/>
<path opacity="0.2" d="M58.7175 125.188C60.1377 127.337 61.377 129.601 62.4226 131.956C61.2632 125.43 57.6689 119.111 57.6689 119.111L58.7175 125.188Z" fill="black"/>
<path opacity="0.3" d="M44.9859 111.293L61.7219 107.047C65.5178 115.338 79.4459 149.381 82.8234 177.705L77.1573 179.142C77.1573 179.142 67.1258 137.373 58.7125 125.178C58.7125 125.178 58.2638 143.717 57.3514 146.416C56.6003 148.635 39.3753 178.325 39.3753 178.325L33.7799 177.695C33.7799 177.695 47.8442 147.394 48.6709 143.617C49.2556 141.044 46.6948 122.152 46.6948 122.152C46.2462 120.467 45.5707 113.492 45.5707 113.492C45.5707 113.492 45.0666 111.641 44.9859 111.293Z" fill="black"/>
<path d="M74.0824 86.3081C74.0824 86.3081 66.4503 91.4625 64.439 91.7348C63.6375 91.8458 61.9841 91.5734 60.2752 91.2305C57.6841 90.6757 54.9822 89.899 54.9822 89.899L54.6444 87.342L54.2865 84.6085C54.8914 84.4067 62.7856 87.6345 63.9652 88.1389C65.1447 88.6432 72.7717 84.1041 72.7717 84.1041L74.0824 86.3081Z" fill="#263238"/>
<path d="M50.4806 110.113L50.9746 112.05L45.5707 113.492L45.0666 111.485L50.4806 110.113Z" fill="black"/>
<path d="M59.0048 107.95L59.4736 109.785L51.5745 111.893L51.0804 109.962L59.0048 107.95Z" fill="black"/>
<path d="M62.5839 108.958L60.0685 109.629L59.6047 107.798L61.9135 107.213L62.5839 108.958Z" fill="black"/>
<path d="M54.7074 111.058L57.8248 110.267L57.2548 108.019L54.1374 108.81L54.7074 111.058Z" fill="white"/>
<path d="M61.9084 107.208L45.0615 111.485C44.2398 109.261 43.403 107.021 42.5864 104.838C41.9865 103.239 41.3967 101.67 40.8221 100.152C40.6776 99.7623 40.5314 99.379 40.3835 99.0024L39.8794 97.6609C39.5064 96.6791 39.1468 95.7326 38.8006 94.8214L37.8731 92.3955L37.4345 91.2456L36.6028 89.077L54.2915 84.5883C60.1239 94.771 61.9084 107.208 61.9084 107.208Z" fill="#263238"/>
<path d="M43.025 88.6432C44.8448 89.5157 48.202 87.9775 48.202 87.9775C48.202 87.9775 49.3161 86.7469 48.6507 86.2022C47.2997 86.3787 47.3854 85.9349 46.8964 85.2439C46.6168 84.8078 46.425 84.3213 46.3318 83.8116C46.2714 83.5301 46.2259 83.2456 46.1957 82.9593L40.8876 81.0529C42.0924 82.9996 43.9626 86.6864 43.025 88.6432Z" fill="#EBB376"/>
<path opacity="0.2" d="M42.5007 82.7928C43.4585 85.3398 45.8076 85.4155 46.8964 85.244C46.6168 84.8079 46.425 84.3213 46.3318 83.8116L42.5007 82.7928Z" fill="black"/>
<path d="M49.4169 73.1296C49.4169 73.1296 50.8032 77.3157 48.8019 79.3583C46.8007 81.4009 45.4447 73.3969 45.4447 73.3969L49.4169 73.1296Z" fill="#263238"/>
<path d="M42.7628 83.9175C43.3617 84.5427 44.1489 84.9543 45.0038 85.0891C45.8588 85.2239 46.7343 85.0746 47.4963 84.664C48.4954 84.1474 49.2598 83.269 49.6337 82.2078C49.6841 82.0666 49.7295 81.9153 49.7698 81.764C50.4453 78.9447 50.0218 74.2897 46.9519 73.0389C46.2753 72.7598 45.5385 72.6585 44.8117 72.7448C44.0849 72.831 43.3923 73.1018 42.7997 73.5315C42.207 73.9611 41.7341 74.5353 41.4259 75.1995C41.1177 75.8636 40.9845 76.5956 41.0388 77.3258C41.2203 80.4678 41.18 82.3137 42.7628 83.9175Z" fill="#EBB376"/>
<path d="M45.7925 78.2184C45.7925 78.4706 45.9235 78.6774 46.0949 78.6774C46.2663 78.6774 46.3924 78.4706 46.3974 78.2184C46.4024 77.9663 46.2613 77.7545 46.0949 77.7545C45.9286 77.7545 45.7925 77.9612 45.7925 78.2184Z" fill="#263238"/>
<path d="M48.6759 78.2185C48.6759 78.4757 48.812 78.6825 48.9784 78.6825C49.1447 78.6825 49.2758 78.4707 49.2808 78.2185C49.2859 77.9664 49.1397 77.7596 48.9784 77.7596C48.8171 77.7596 48.6759 77.9765 48.6759 78.2185Z" fill="#263238"/>
<path d="M47.7585 78.3445C48.0599 79.1255 48.4688 79.8605 48.9733 80.5284C48.7983 80.6538 48.5978 80.7392 48.3861 80.7784C48.1744 80.8176 47.9567 80.8097 47.7484 80.7553L47.7585 78.3445Z" fill="#D58745"/>
<path d="M49.7294 77.0384C49.7053 77.0508 49.6785 77.0572 49.6513 77.0572C49.6241 77.0572 49.5974 77.0508 49.5732 77.0384C49.4241 76.9237 49.2502 76.8457 49.0654 76.8106C48.8806 76.7756 48.6902 76.7845 48.5095 76.8366C48.4728 76.8507 48.4319 76.8495 48.396 76.8334C48.3601 76.8174 48.332 76.7877 48.318 76.7509C48.304 76.7141 48.3051 76.6732 48.3212 76.6373C48.3372 76.6014 48.3669 76.5733 48.4037 76.5592C48.6297 76.4878 48.8697 76.472 49.1032 76.5133C49.3366 76.5546 49.5567 76.6517 49.7446 76.7963C49.7611 76.807 49.7753 76.8209 49.7863 76.8372C49.7973 76.8534 49.8049 76.8718 49.8087 76.8911C49.8124 76.9104 49.8123 76.9303 49.8082 76.9495C49.8041 76.9687 49.7962 76.9869 49.7849 77.0031C49.768 77.0171 49.7493 77.029 49.7294 77.0384Z" fill="#263238"/>
<path d="M45.2229 77.0737C45.194 77.0698 45.1664 77.0595 45.1422 77.0434C45.1145 77.0151 45.099 76.9771 45.099 76.9375C45.099 76.8979 45.1145 76.8599 45.1422 76.8316C45.3184 76.6702 45.531 76.5538 45.7618 76.4923C45.9926 76.4309 46.2349 76.4261 46.468 76.4785C46.5048 76.4902 46.5357 76.5155 46.5545 76.5493C46.5732 76.583 46.5783 76.6227 46.5688 76.6601C46.5571 76.6982 46.5312 76.7304 46.4966 76.7501C46.4619 76.7698 46.421 76.7755 46.3823 76.766C46.1984 76.729 46.0084 76.7363 45.8278 76.7871C45.6473 76.838 45.4814 76.931 45.3438 77.0585C45.3258 77.0693 45.3058 77.0762 45.2849 77.0788C45.2641 77.0814 45.243 77.0797 45.2229 77.0737Z" fill="#263238"/>
<path d="M43.3375 73.4323L43.64 74.0123C42.6318 74.4006 42.8838 75.5909 43.1359 76.1205C43.64 77.2603 43.0603 79.091 42.2083 79.8526C42.2083 79.8526 42.1529 79.3483 41.7345 79.4895C41.3161 79.6307 41.5581 82.2432 42.4453 83.4536C42.4453 83.4536 41.1397 82.3794 40.3029 79.666C39.5316 77.1443 39.3501 75.0412 39.829 74.0325L43.3375 73.4323Z" fill="#263238"/>
<path d="M39.6677 79.9081C39.8392 80.2602 40.0784 80.5751 40.3716 80.8348C40.6648 81.0944 41.0063 81.2936 41.3766 81.4211C42.3848 81.754 42.8889 80.8814 42.6873 79.9081C42.4755 79.0557 41.7143 77.8201 40.6709 77.9159C40.4508 77.9405 40.2404 78.0195 40.0586 78.146C39.8769 78.2725 39.7295 78.4423 39.6299 78.6401C39.5303 78.8379 39.4816 79.0575 39.4882 79.2789C39.4948 79.5003 39.5565 79.7165 39.6677 79.9081Z" fill="#EBB376"/>
<path d="M43.3073 85.1784C44.7893 86.2173 47.6778 86.5552 49.0943 84.674C50.5108 82.7928 50.0571 79.7718 50.0571 79.7718C49.8944 80.4466 49.5846 81.0769 49.1497 81.6177C48.3482 80.6494 46.9872 81.1991 46.9872 81.1991C46.7004 80.8257 46.2888 80.5679 45.8277 80.4729C45.1674 80.4073 43.3073 80.5183 43.3073 80.5183C42.7124 80.14 42.6872 78.4555 42.6872 78.4555L42.3243 78.7581C42.3243 78.7581 41.8202 84.1344 43.3073 85.1784Z" fill="#263238"/>
<path d="M47.2695 74.5015C47.2695 74.5015 50.7982 72.7868 50.3798 71.072C49.9614 69.3572 48.933 71.3141 48.933 71.3141C48.933 71.3141 49.4069 70.0129 48.4793 69.8011C47.5518 69.5892 47.8442 70.4214 47.3401 70.9207C46.836 71.42 41.9462 70.6937 40.3684 71.6722C38.7906 72.6506 39.9954 76.0347 39.9954 76.0347C40.9272 75.0987 42.1118 74.4551 43.4039 74.1828C44.696 73.9105 46.0394 74.0212 47.2695 74.5015Z" fill="#263238"/>
<path opacity="0.2" d="M43.3073 85.1784C44.7893 86.2173 47.6778 86.5552 49.0943 84.674C50.5108 82.7928 50.0571 79.7718 50.0571 79.7718C49.8944 80.4466 49.5846 81.0769 49.1497 81.6177C48.3482 80.6494 46.9872 81.1991 46.9872 81.1991C46.7004 80.8257 46.2888 80.5679 45.8277 80.4729C45.1674 80.4073 43.3073 80.5183 43.3073 80.5183C42.7124 80.14 42.6872 78.4555 42.6872 78.4555L42.3243 78.7581C42.3243 78.7581 41.8202 84.1344 43.3073 85.1784Z" fill="white"/>
<path d="M47.1384 82.1574C46.8671 82.5207 46.6228 82.9033 46.4075 83.3023L46.1806 83.2165C45.1724 82.8484 44.8095 82.344 44.7288 81.8901C44.6962 81.6702 44.7152 81.4458 44.7843 81.2345C44.821 81.1122 44.8735 80.9952 44.9405 80.8865C45.4708 81.393 46.1033 81.7799 46.7956 82.0212C47.0023 82.112 47.1384 82.1574 47.1384 82.1574Z" fill="#263238"/>
<path d="M46.7956 82.0263L46.5688 82.3591C45.611 82.0111 44.9809 81.6379 44.7843 81.2395C44.821 81.1172 44.8736 81.0002 44.9406 80.8915C45.4708 81.398 46.1034 81.7849 46.7956 82.0263Z" fill="white"/>
<path d="M46.1806 83.2166C45.1724 82.8484 44.8095 82.344 44.7288 81.8901C45.1138 82.04 45.4702 82.2549 45.7824 82.5256C45.9844 82.7083 46.1238 82.9501 46.1806 83.2166Z" fill="#DE5753"/>
<path d="M48.8675 87.9825L48.5701 90.595L54.0143 102.2L53.4749 103.738L51.6955 102.916L47.8139 91.0792L44.9607 89.1476L47.0376 88.0078L48.8675 87.9825Z" fill="#FF327B"/>
<path d="M43.146 86.1972L46.7503 87.685L46.8965 85.244L49.553 85.8996L49.7799 89.6166L47.2241 88.5726L46.1554 90.9531L41.6135 87.917L43.146 86.1972Z" fill="#263238"/>
<path opacity="0.2" d="M43.146 86.1972L46.7503 87.685L46.8965 85.244L49.553 85.8996L49.7799 89.6166L47.2241 88.5726L46.1554 90.9531L41.6135 87.917L43.146 86.1972Z" fill="white"/>
<path opacity="0.2" d="M39.8744 97.6609C39.5013 96.6791 39.1418 95.7327 38.7956 94.8215L37.8681 92.3956L37.4295 91.2457C37.9336 90.9986 39.219 91.1448 39.577 91.75C40.8876 94.0398 39.8744 97.6609 39.8744 97.6609Z" fill="black"/>
<path opacity="0.2" d="M46.1908 100.223C45.9754 101.214 45.5395 102.143 44.9155 102.942C44.2915 103.741 43.4954 104.389 42.5865 104.838C41.9866 103.239 41.3968 101.67 40.8221 100.152C40.6776 99.7623 40.5314 99.379 40.3836 99.0024L39.8795 97.6609L45.7169 98.4023L46.1908 100.223Z" fill="black"/>
<path opacity="0.2" d="M60.2751 91.2104C57.6841 90.6556 54.9821 89.8789 54.9821 89.8789L54.6444 87.3219C54.6444 87.3219 59.4081 87.8313 60.2751 91.2104Z" fill="black"/>
<path d="M36.5978 150.798C36.4397 150.804 36.284 150.759 36.1525 150.671C36.0211 150.584 35.9204 150.457 35.8648 150.309C35.8091 150.16 35.8013 149.999 35.8423 149.846C35.8834 149.693 35.9713 149.557 36.0937 149.457C44.507 142.547 44.3457 131.719 44.1895 121.244C44.0685 113.346 43.9576 105.882 47.6728 100.808C52.8851 93.6766 73.8505 82.3642 77.3237 82.0414C79.8089 81.7943 155.61 60.7178 195.348 49.6071C195.541 49.553 195.748 49.5778 195.923 49.6761C196.097 49.7745 196.226 49.9384 196.28 50.1316C196.334 50.3249 196.31 50.5318 196.211 50.7068C196.113 50.8818 195.949 51.0105 195.756 51.0647C191.053 52.381 80.5801 83.2619 77.4648 83.5494C74.4755 83.8268 53.7219 95.0938 48.8927 101.706C45.4799 106.371 45.5858 113.588 45.7017 121.224C45.853 131.553 46.0294 143.264 37.0514 150.632C36.9229 150.736 36.7633 150.795 36.5978 150.798Z" fill="#263238"/>
<path opacity="0.4" d="M195.781 51.0597L185.417 53.9647C156.91 61.9232 80.0609 83.3174 77.49 83.5545C74.5007 83.8319 53.7471 95.0989 48.9179 101.711C45.5051 106.376 45.611 113.593 45.7269 121.229C45.8782 131.558 46.0546 143.269 37.0767 150.637C36.9354 150.754 36.756 150.815 36.5726 150.809C36.4145 150.814 36.2588 150.769 36.1273 150.682C35.9958 150.594 35.8952 150.467 35.8396 150.319C35.7839 150.171 35.7761 150.009 35.8171 149.856C35.8582 149.703 35.9461 149.567 36.0685 149.467C44.4818 142.558 44.3205 131.729 44.1642 121.254C44.0433 113.356 43.9324 105.892 47.6475 100.818C52.8599 93.6867 73.8253 82.3743 77.2985 82.0515C79.6375 81.8195 146.793 63.1689 187.837 51.7103L195.323 49.6173C195.516 49.5631 195.722 49.5879 195.897 49.6863C196.072 49.7846 196.201 49.9485 196.255 50.1418C196.309 50.3351 196.284 50.5419 196.186 50.7169C196.088 50.8919 195.924 51.0206 195.731 51.0748L195.781 51.0597Z" fill="white"/>
<path opacity="0.2" d="M195.781 51.0596L185.417 53.9646C186.144 53.1119 186.973 52.353 187.887 51.7052L195.373 49.6121C195.566 49.558 195.773 49.5828 195.948 49.6812C196.123 49.7795 196.251 49.9434 196.305 50.1367C196.36 50.3299 196.335 50.5368 196.236 50.7118C196.138 50.8868 195.974 51.0155 195.781 51.0697V51.0596Z" fill="black"/>
<path d="M41.7496 98.7503L45.7118 98.4023C45.7118 98.4023 47.7837 97.091 48.1819 97.1767C48.5801 97.2624 52.5272 99.1941 52.5272 99.1941C52.5272 99.1941 50.7377 101.499 50.4402 101.978C50.1428 102.457 46.5789 100.198 46.5789 100.198L42.652 100.616L41.7496 98.7503Z" fill="#EBB376"/>
<path d="M36.5978 89.077C34.7981 90.363 30.1101 100.848 30.6091 102.467C31.1082 104.086 45.6967 100.894 45.6967 100.894L45.0514 98.1652H37.2027L39.0678 95.2198C39.0678 95.2198 40.2172 94.1002 39.5114 91.4978C39.0023 89.6217 36.5978 89.077 36.5978 89.077Z" fill="#263238"/>
<path d="M188.593 90.1311L185.604 88.7139C185.604 88.7139 184.091 85.819 183.648 85.355C183.204 84.891 181.062 86.6915 181.062 87.0042C181.062 87.3169 182.614 90.2421 183.018 90.4186C183.618 90.5068 184.227 90.5068 184.827 90.4186L187.67 91.7954L188.593 90.1311Z" fill="#9F5B53"/>
<path d="M195.57 72.1917L196.169 70.0482C196.169 70.0482 197.117 67.2542 197.016 66.6086C196.831 65.8445 196.592 65.0945 196.3 64.3643C196.3 64.3643 193.679 67.5568 193.679 67.9552C193.679 68.3536 194.718 69.8011 194.718 69.8011L194.214 72.1917H195.57Z" fill="#9F5B53"/>
<path d="M197.873 88.1591C197.873 88.1591 195.615 85.3499 194.95 82.7374C194.284 80.1249 196.295 71.6419 196.295 71.6419L194.173 71.077C194.173 71.077 191.653 79.7568 191.567 82.924C191.481 86.0913 196.19 95.3864 196.19 95.3864L197.873 88.1591Z" fill="#FF327B"/>
<path opacity="0.2" d="M196.507 93.9894L196.185 95.3662C196.185 95.3662 194.561 92.1637 193.236 88.8754C194.615 89.8669 195.656 91.26 196.215 92.8647C196.343 93.231 196.441 93.6071 196.507 93.9894Z" fill="black"/>
<path d="M209.83 94.3121C209.802 94.8982 209.731 95.4814 209.619 96.0572C209.387 97.318 208.994 98.8058 208.545 100.445C208.303 101.307 208.041 102.23 207.809 103.204C206.685 107.576 206.075 109.316 205.243 114.899L189.288 111.112C190.151 106.333 191.466 101.646 193.215 97.1163C193.679 95.9109 194.224 94.7055 194.773 93.5153C195.654 91.649 196.691 89.8607 197.873 88.1693C197.873 88.1693 200.454 90.5296 208.56 91.9468C209.543 92.0981 209.881 92.9555 209.83 94.3121Z" fill="#FF327B"/>
<path opacity="0.2" d="M207.824 92.4915C207.824 92.9958 209.735 95.3965 209.619 96.0219C209.402 96.1681 209.145 96.3295 208.852 96.5262C203.454 99.6683 196.371 98.0745 193.225 97.1012C193.689 95.8958 194.738 93.6817 195.282 92.4915L199.068 93.3337C199.068 93.3337 205.258 91.9216 207.824 92.4915Z" fill="black"/>
<path d="M201.336 89.1225C201.916 88.9006 206.675 90.0858 206.322 90.1866C205.969 90.2875 204.195 95.7344 201.709 95.3259C199.224 94.9173 199.269 89.9092 201.336 89.1225Z" fill="#FF327B"/>
<path d="M179.791 178.366L176.797 179.017L175.048 172.127L178.047 171.477L179.791 178.366Z" fill="#9F5B53"/>
<path d="M176.051 177.766H179.776C179.837 177.766 179.896 177.787 179.943 177.826C179.99 177.864 180.022 177.918 180.033 177.978L180.638 180.706C180.651 180.764 180.653 180.825 180.643 180.884C180.632 180.943 180.61 180.999 180.578 181.049C180.545 181.099 180.503 181.143 180.454 181.176C180.405 181.21 180.349 181.234 180.29 181.246H180.19C178.985 181.246 178.108 181.15 176.595 181.15C175.663 181.15 172.85 181.246 171.554 181.246C170.259 181.246 170.103 179.975 170.627 179.859C172.991 179.354 174.771 178.628 175.527 177.952C175.597 177.888 175.68 177.838 175.77 177.806C175.86 177.774 175.956 177.761 176.051 177.766Z" fill="#263238"/>
<path d="M175.038 178.305C174.829 178.321 174.621 178.266 174.448 178.149C174.391 178.103 174.348 178.043 174.321 177.975C174.295 177.907 174.286 177.833 174.297 177.761C174.294 177.718 174.304 177.676 174.326 177.639C174.347 177.602 174.379 177.573 174.418 177.554C174.76 177.377 175.748 177.988 175.859 178.058C175.872 178.065 175.882 178.075 175.889 178.088C175.895 178.1 175.897 178.115 175.895 178.129C175.893 178.144 175.887 178.157 175.877 178.168C175.867 178.179 175.854 178.186 175.839 178.189C175.577 178.258 175.308 178.297 175.038 178.305ZM174.579 177.67C174.549 177.66 174.518 177.66 174.488 177.67C174.488 177.67 174.443 177.695 174.438 177.756C174.433 177.804 174.439 177.852 174.457 177.897C174.474 177.942 174.502 177.981 174.539 178.013C174.881 178.17 175.271 178.189 175.627 178.068C175.307 177.869 174.951 177.734 174.579 177.67Z" fill="#FF327B"/>
<path d="M175.819 178.194H175.784C175.471 178.023 174.856 177.347 174.917 177.024C174.928 176.97 174.958 176.921 175.001 176.887C175.044 176.852 175.098 176.833 175.154 176.833C175.209 176.825 175.265 176.83 175.318 176.847C175.371 176.863 175.42 176.891 175.461 176.928C175.814 177.216 175.89 178.099 175.895 178.139C175.895 178.152 175.893 178.165 175.886 178.177C175.88 178.188 175.871 178.198 175.859 178.204C175.852 178.207 175.845 178.207 175.838 178.205C175.831 178.203 175.824 178.2 175.819 178.194ZM175.204 176.949H175.169C175.073 176.949 175.068 177.004 175.063 177.024C175.023 177.226 175.416 177.735 175.728 177.972C175.711 177.628 175.59 177.298 175.38 177.024C175.358 177 175.33 176.981 175.3 176.968C175.27 176.955 175.237 176.949 175.204 176.949Z" fill="#FF327B"/>
<path d="M205.374 115.318C205.374 115.318 202.788 127.654 196.739 130.953C196.045 131.343 195.284 131.602 194.496 131.714C194.496 131.714 188.361 134.236 183.058 136.622C179.832 138.079 176.913 139.501 175.869 140.298C173.107 142.401 179.872 175.234 179.872 175.234L175.275 175.284C175.275 175.284 165.601 146.214 167.209 138.583C168.817 130.953 186.178 119.272 186.178 119.272L188.85 111.919L205.374 115.318Z" fill="#263238"/>
<path opacity="0.2" d="M196.739 130.968C196.045 131.358 195.284 131.617 194.496 131.729C194.496 131.729 188.361 134.251 183.058 136.637C186.471 130.358 192.555 126.277 192.555 126.277L196.739 130.968Z" fill="black"/>
<path d="M218.334 178.366L215.34 179.017L213.591 172.127L216.59 171.477L218.334 178.366Z" fill="#9F5B53"/>
<path d="M214.594 177.766H218.319C218.38 177.766 218.439 177.787 218.486 177.826C218.533 177.864 218.565 177.918 218.576 177.978L219.181 180.706C219.195 180.764 219.196 180.825 219.186 180.884C219.175 180.943 219.153 180.999 219.121 181.049C219.089 181.099 219.046 181.143 218.997 181.176C218.948 181.21 218.892 181.234 218.834 181.246H218.733C217.528 181.246 216.651 181.15 215.139 181.15C214.206 181.15 211.393 181.246 210.098 181.246C208.802 181.246 208.646 179.975 209.17 179.859C211.534 179.354 213.314 178.628 214.07 177.952C214.141 177.888 214.223 177.838 214.313 177.806C214.403 177.774 214.499 177.761 214.594 177.766Z" fill="#263238"/>
<path d="M213.581 178.305C213.372 178.321 213.165 178.266 212.991 178.149C212.935 178.103 212.891 178.043 212.864 177.975C212.838 177.907 212.829 177.833 212.84 177.761C212.838 177.718 212.848 177.676 212.869 177.639C212.891 177.602 212.923 177.573 212.961 177.554C213.304 177.377 214.292 177.988 214.403 178.058C214.415 178.065 214.426 178.075 214.432 178.088C214.438 178.1 214.44 178.115 214.438 178.129C214.436 178.144 214.43 178.157 214.42 178.168C214.41 178.179 214.397 178.186 214.382 178.189C214.12 178.258 213.852 178.297 213.581 178.305ZM213.122 177.67C213.093 177.66 213.061 177.66 213.031 177.67C213.031 177.67 212.986 177.695 212.981 177.756C212.976 177.804 212.982 177.852 213 177.897C213.017 177.942 213.046 177.981 213.082 178.013C213.424 178.17 213.814 178.189 214.171 178.068C213.85 177.869 213.494 177.734 213.122 177.67Z" fill="#FF327B"/>
<path d="M214.362 178.194H214.327C214.014 178.023 213.399 177.347 213.46 177.024C213.471 176.97 213.501 176.921 213.544 176.887C213.588 176.852 213.641 176.833 213.697 176.833C213.752 176.825 213.808 176.83 213.861 176.847C213.914 176.863 213.963 176.891 214.004 176.928C214.357 177.216 214.433 178.099 214.438 178.139C214.439 178.152 214.436 178.165 214.43 178.177C214.423 178.188 214.414 178.198 214.403 178.204C214.396 178.207 214.388 178.207 214.381 178.205C214.374 178.203 214.367 178.2 214.362 178.194ZM213.747 176.949H213.692C213.596 176.949 213.591 177.004 213.586 177.024C213.546 177.226 213.939 177.735 214.251 177.972C214.232 177.623 214.105 177.289 213.888 177.014C213.85 176.977 213.8 176.954 213.747 176.949Z" fill="#FF327B"/>
<path d="M206.408 91.7349C205.657 92.2393 202.193 92.0476 202.193 92.0476L200.585 93.8078L200.429 90.8977C200.429 90.8977 199.345 90.4489 199.643 90.1362C200.02 90.1643 200.398 90.1167 200.757 89.9964C201.115 89.876 201.446 89.6852 201.73 89.4351C202.43 88.7492 202.566 87.6447 202.556 86.5503C202.556 86.5503 202.556 86.5201 202.556 86.51L205.515 84.9969L207.562 83.9429C206.599 86.0208 205.223 89.9193 206.408 91.7349Z" fill="#9F5B53"/>
<path opacity="0.2" d="M206.493 85.6879C205.515 88.1642 202.965 89.2687 201.709 89.4301C202.41 88.7442 202.546 87.6397 202.536 86.5452C202.539 86.5302 202.539 86.5149 202.536 86.4998L205.495 84.9868C205.5 85.3903 206.634 85.3096 206.493 85.6879Z" fill="black"/>
<path d="M208.374 85.5871C208.374 85.5871 210.294 86.5957 210.934 85.3904C211.575 84.185 210.662 84.1144 211.605 83.6806C212.547 83.2469 213.888 82.9443 213.581 82.0314C213.273 81.1186 212.321 81.0228 213.379 80.0141C214.438 79.0054 214.67 77.5831 213.087 77.3058C211.504 77.0284 212.109 75.7927 212.028 75.2884C211.948 74.784 211.06 74.431 210.098 74.6327C209.135 74.8345 208.732 73.4072 208.137 72.9634C207.542 72.5195 206.72 73.0642 206.503 73.6644C206.287 74.2646 205.717 73.4677 204.87 73.3668C204.023 73.266 204.22 74.1587 203.958 74.9908C203.696 75.823 203.176 75.2833 202.571 75.9693C201.967 76.6552 201.911 81.3355 208.374 85.5871Z" fill="#263238"/>
<path d="M209.21 82.7123C207.764 84.9818 206.942 86.4797 205.319 87.2161C205.1 87.3169 204.874 87.4012 204.643 87.4682C201.488 88.3962 198.886 85.355 199.718 82.3441C199.876 81.8007 200.079 81.271 200.323 80.7605C201.452 78.3951 203.625 75.9743 206.221 76.292C206.763 76.354 207.288 76.5224 207.765 76.7875C208.242 77.0525 208.662 77.4092 209.001 77.8369C209.34 78.2646 209.591 78.755 209.74 79.2801C209.89 79.8051 209.934 80.3544 209.871 80.8967C209.794 81.5449 209.568 82.1665 209.21 82.7123Z" fill="#9F5B53"/>
<path d="M204.769 81.1993C204.663 81.4262 204.437 81.5271 204.295 81.4514C204.154 81.3758 204.139 81.1287 204.255 80.9168C204.371 80.705 204.593 80.589 204.729 80.6647C204.865 80.7403 204.89 80.9925 204.769 81.1993Z" fill="#263238"/>
<path d="M202.324 79.8527C202.293 79.9475 202.226 80.0264 202.138 80.0726C202.049 80.1187 201.946 80.1285 201.851 80.0998C201.714 80.0191 201.694 79.7821 201.815 79.5652C201.936 79.3483 202.148 79.2374 202.289 79.3181C202.43 79.3988 202.44 79.6459 202.324 79.8527Z" fill="#263238"/>
<path d="M203.045 80.3923C202.419 80.9075 201.725 81.3351 200.983 81.6632C201.072 81.852 201.201 82.019 201.361 82.1524C201.522 82.2857 201.709 82.3822 201.911 82.4349L203.045 80.3923Z" fill="#892B29"/>
<path d="M206.231 80.6344C206.205 80.6384 206.178 80.6354 206.153 80.6257C206.128 80.6159 206.107 80.5998 206.09 80.5789C205.988 80.4282 205.851 80.3039 205.692 80.2162C205.532 80.1285 205.354 80.08 205.173 80.0746C205.151 80.0786 205.13 80.0778 205.109 80.0725C205.088 80.0671 205.069 80.0572 205.052 80.0434C205.036 80.0297 205.022 80.0125 205.013 79.9931C205.004 79.9736 204.999 79.9524 204.999 79.9309C204.999 79.9094 205.004 79.8881 205.013 79.8687C205.022 79.8492 205.036 79.832 205.052 79.8183C205.069 79.8046 205.088 79.7947 205.109 79.7893C205.13 79.7839 205.151 79.7832 205.173 79.7871C205.402 79.7887 205.628 79.8459 205.831 79.954C206.034 80.062 206.207 80.2176 206.337 80.4075C206.349 80.4222 206.358 80.4393 206.363 80.4575C206.368 80.4758 206.37 80.4949 206.367 80.5137C206.365 80.5325 206.359 80.5507 206.349 80.5671C206.34 80.5835 206.327 80.5978 206.312 80.6092C206.287 80.624 206.26 80.6327 206.231 80.6344Z" fill="#263238"/>
<path d="M202.501 83.7865C202.839 83.8966 203.199 83.9233 203.55 83.8645C203.901 83.8056 204.233 83.663 204.517 83.4486C204.53 83.4339 204.537 83.4151 204.537 83.3956C204.537 83.3762 204.53 83.3574 204.517 83.3427C204.503 83.3288 204.484 83.321 204.464 83.321C204.445 83.321 204.425 83.3288 204.411 83.3427C204.142 83.5362 203.832 83.6644 203.504 83.7169C203.177 83.7694 202.842 83.7449 202.526 83.6453C202.517 83.6413 202.508 83.6394 202.498 83.6396C202.488 83.6398 202.479 83.6421 202.47 83.6465C202.461 83.6508 202.454 83.657 202.448 83.6647C202.442 83.6723 202.437 83.6812 202.435 83.6907C202.431 83.6995 202.429 83.7092 202.43 83.7189C202.43 83.7286 202.432 83.7381 202.436 83.7468C202.441 83.7555 202.447 83.7631 202.455 83.7691C202.462 83.7751 202.471 83.7793 202.481 83.7815L202.501 83.7865Z" fill="#263238"/>
<path d="M202.098 77.7596C202.09 77.7316 202.09 77.7019 202.098 77.6739C202.114 77.6394 202.143 77.6128 202.179 77.5996C202.215 77.5864 202.254 77.5877 202.289 77.6033C202.501 77.698 202.686 77.8424 202.83 78.0241C202.974 78.2058 203.072 78.4196 203.116 78.6473C203.12 78.6853 203.109 78.7236 203.086 78.7537C203.062 78.7839 203.028 78.8036 202.99 78.8087C202.952 78.813 202.914 78.8022 202.883 78.7786C202.853 78.755 202.834 78.7206 202.828 78.6826C202.789 78.5046 202.708 78.3384 202.592 78.1973C202.477 78.0563 202.33 77.9444 202.163 77.8706C202.145 77.8576 202.13 77.841 202.119 77.8219C202.107 77.8029 202.1 77.7816 202.098 77.7596Z" fill="#263238"/>
<path d="M204.174 76.5038C204.91 76.5946 205.273 77.5125 205.273 77.5125C206.163 77.8379 207.023 78.2395 207.844 78.7128C208.095 78.9171 208.283 79.1873 208.388 79.493C208.493 79.7986 208.511 80.1276 208.439 80.4427C208.414 80.6848 207.819 80.9067 207.819 80.9067C207.819 80.9067 206.73 83.4789 206.433 84.19L206.584 86.5655C208.585 85.2995 210.187 83.4935 211.207 81.3556C212.926 77.7748 205.752 74.6226 205.752 74.6226L204.174 76.5038Z" fill="#263238"/>
<path d="M208.777 86.3032C208.107 86.6705 207.318 86.7575 206.584 86.5453C205.611 86.2528 205.667 85.2542 206.387 84.6137C207.033 84.0589 208.328 83.5092 209.079 84.1547C209.244 84.2952 209.37 84.4749 209.447 84.6772C209.523 84.8795 209.547 85.0978 209.517 85.312C209.487 85.5262 209.403 85.7293 209.274 85.9026C209.145 86.0758 208.974 86.2136 208.777 86.3032Z" fill="#9F5B53"/>
<path d="M206.322 90.1866L202.314 91.3415L200.585 93.6867L201.054 90.817C201.054 90.817 200.626 90.1563 201.336 89.1224L198.897 89.6268L197.425 92.088L200.288 91.4172L200.484 94.2768L202.153 92.3099L203.519 94.4685L207.582 91.8913L206.322 90.1866Z" fill="#FF327B"/>
<path opacity="0.2" d="M206.322 90.1866L202.314 91.3415L200.585 93.6867L201.054 90.817C201.054 90.817 200.626 90.1563 201.336 89.1224L198.897 89.6268L197.425 92.088L200.288 91.4172L200.484 94.2768L202.153 92.3099L203.519 94.4685L207.582 91.8913L206.322 90.1866Z" fill="black"/>
<path d="M189.5 109.442L188.875 111.934L205.369 115.318L205.616 112.549L189.5 109.442Z" fill="black"/>
<path d="M196.865 110.749C196.734 110.562 193.064 109.77 192.716 110.033C192.716 110.033 192.006 112.489 192.127 112.746C192.248 113.003 195.817 113.502 196.159 113.573C196.502 113.644 196.996 110.955 196.865 110.749ZM195.857 113.27C195.585 113.215 192.651 112.806 192.55 112.595C192.449 112.383 193.054 110.365 193.054 110.365C193.341 110.149 196.356 110.799 196.462 110.95C196.568 111.102 196.129 113.301 195.857 113.245V113.27Z" fill="white"/>
<path d="M195.998 111.586L195.267 111.435C195.201 111.422 195.132 111.434 195.074 111.47C195.016 111.505 194.973 111.561 194.955 111.626C194.944 111.663 194.941 111.701 194.947 111.739C194.952 111.776 194.965 111.812 194.985 111.845C195.005 111.877 195.031 111.905 195.062 111.926C195.094 111.948 195.129 111.962 195.166 111.969L195.897 112.11C195.968 112.124 196.042 112.11 196.102 112.07C196.162 112.029 196.203 111.967 196.217 111.896C196.231 111.825 196.217 111.752 196.177 111.692C196.136 111.631 196.074 111.59 196.003 111.576L195.998 111.586Z" fill="white"/>
<path d="M205.369 115.318C205.369 115.318 205.687 133.979 205.162 139.426C204.638 144.873 218.229 174.684 218.229 174.684H213.828C213.828 174.684 200.495 152.856 197.44 146.138C194.385 139.421 192.127 123.393 192.127 123.393L205.369 115.318Z" fill="#263238"/>
<path d="M209.886 93.0008C209.205 91.4576 198.755 93.7422 197.813 93.4749C196.87 93.2076 187.06 89.0972 187.06 89.0972L186.208 91.2861C186.208 91.2861 195.005 96.3295 196.931 97.1264C198.856 97.9232 206.554 97.5399 208.525 96.6876C208.862 96.5421 209.166 96.3295 209.419 96.0628C209.672 95.7961 209.868 95.4808 209.995 95.1361C210.122 94.7913 210.178 94.4243 210.16 94.0572C210.141 93.6902 210.048 93.3308 209.886 93.0008Z" fill="#FF327B"/>
<path d="M208.036 52.9207L204.87 32.7469L188.195 44.5435L193.74 46.8938C188.386 59.1695 171.02 95.1341 141.137 121.652C102.982 155.519 49.5782 172.183 49.0439 172.344L51.9979 181.992C54.2663 181.296 107.993 164.552 147.847 129.182C179.605 101 197.46 63.8296 203.065 50.8175L208.036 52.9207Z" fill="#FF327B"/>
<path opacity="0.4" d="M205.011 49.3902L204.87 32.7469L188.195 44.5435L193.74 46.8938C188.386 59.1695 171.02 95.1341 141.137 121.652C102.982 155.519 49.5782 172.183 49.0439 172.344L49.9815 178.462C52.2499 177.766 105.976 162.534 145.83 127.165C177.588 98.9823 194.435 61.3079 200.041 48.2958L205.011 49.3902Z" fill="white"/>
<path d="M202.098 53.773C202.019 53.7736 201.941 53.7617 201.866 53.7377L192.182 50.6057C192.082 50.5799 191.989 50.5339 191.907 50.4706C191.826 50.4074 191.758 50.3281 191.709 50.2378C191.659 50.1474 191.629 50.0479 191.619 49.9453C191.609 49.8426 191.62 49.7391 191.652 49.641C191.684 49.5429 191.735 49.4523 191.803 49.3748C191.871 49.2972 191.954 49.2344 192.047 49.1902C192.14 49.1459 192.241 49.1211 192.344 49.1174C192.447 49.1136 192.55 49.131 192.646 49.1684L202.329 52.2953C202.502 52.3499 202.649 52.4645 202.744 52.6184C202.839 52.7722 202.876 52.9551 202.848 53.1338C202.82 53.3126 202.729 53.4753 202.591 53.5926C202.454 53.7099 202.278 53.7739 202.098 53.773Z" fill="#263238"/>
<path opacity="0.4" d="M202.098 53.773C202.019 53.7736 201.941 53.7617 201.866 53.7377L192.182 50.6057C192.082 50.5799 191.989 50.5339 191.907 50.4706C191.826 50.4074 191.758 50.3281 191.709 50.2378C191.659 50.1474 191.629 50.0479 191.619 49.9453C191.609 49.8426 191.62 49.7391 191.652 49.641C191.684 49.5429 191.735 49.4523 191.803 49.3748C191.871 49.2972 191.954 49.2344 192.047 49.1902C192.14 49.1459 192.241 49.1211 192.344 49.1174C192.447 49.1136 192.55 49.131 192.646 49.1684L202.329 52.2953C202.502 52.3499 202.649 52.4645 202.744 52.6184C202.839 52.7722 202.876 52.9551 202.848 53.1338C202.82 53.3126 202.729 53.4753 202.591 53.5926C202.454 53.7099 202.278 53.7739 202.098 53.773Z" fill="white"/>
<path d="M86.1202 148.186C85.9196 148.186 85.7273 148.106 85.5855 147.964C85.4437 147.822 85.364 147.63 85.364 147.429C85.364 123.352 92.3559 120.195 93.6665 119.807L115.897 104.248L115.948 104.217L201.352 53.5511C201.524 53.4529 201.728 53.4263 201.919 53.477C202.111 53.5278 202.275 53.6519 202.376 53.8225C202.477 53.9931 202.508 54.1966 202.46 54.3893C202.413 54.5819 202.292 54.7481 202.123 54.8523L116.759 105.503L94.4227 121.138C94.3275 121.204 94.2192 121.249 94.1051 121.269C94.0496 121.269 86.8763 123.034 86.8763 147.445C86.8724 147.643 86.791 147.831 86.6496 147.97C86.5082 148.108 86.3181 148.186 86.1202 148.186Z" fill="#263238"/>
<path opacity="0.4" d="M86.1202 148.186C85.9196 148.186 85.7273 148.106 85.5855 147.964C85.4437 147.822 85.364 147.63 85.364 147.429C85.364 123.352 92.3559 120.195 93.6665 119.807L115.897 104.248L115.948 104.217L201.352 53.5511C201.524 53.4529 201.728 53.4263 201.919 53.477C202.111 53.5278 202.275 53.6519 202.376 53.8225C202.477 53.9931 202.508 54.1966 202.46 54.3893C202.413 54.5819 202.292 54.7481 202.123 54.8523L116.759 105.503L94.4227 121.138C94.3275 121.204 94.2192 121.249 94.1051 121.269C94.0496 121.269 86.8763 123.034 86.8763 147.445C86.8724 147.643 86.791 147.831 86.6496 147.97C86.5082 148.108 86.3181 148.186 86.1202 148.186Z" fill="white"/>
<path d="M91.9274 123.201C91.9274 123.201 88.0408 125.723 85.0868 126.484C84.3577 126.731 83.5753 126.774 82.8234 126.61C80.6255 125.914 81.9311 121.658 83.2418 118.969C83.4535 118.531 83.6652 118.137 83.8618 117.804L87.7031 120.18C87.7031 120.18 85.3741 123.503 85.6413 123.71C85.9085 123.917 89.4976 121.915 89.6741 121.849C89.8505 121.784 91.9274 123.201 91.9274 123.201Z" fill="#FF327B"/>
<path opacity="0.2" d="M91.9274 123.201C91.9274 123.201 88.0408 125.722 85.0868 126.484C84.2667 124.034 83.6496 121.521 83.2418 118.969C83.4535 118.531 83.6652 118.137 83.8618 117.804L87.703 120.18C87.703 120.18 85.3741 123.503 85.6413 123.71C85.9084 123.917 89.4976 121.915 89.674 121.849C89.8505 121.784 91.9274 123.201 91.9274 123.201Z" fill="black"/>
<path d="M110.856 108.565L113.135 106.547C113.317 105.971 113.567 105.419 113.881 104.903C114.128 104.696 118.276 104.374 118.276 104.374C118.276 104.374 118.357 106.567 118.029 107.137C117.702 107.707 114.314 107.954 114.314 107.954L112.499 109.705L110.856 108.565Z" fill="#EEC1BB"/>
<path d="M122.995 156.371C122.345 165.732 120.605 179.016 120.605 179.016L118.367 179.521C118.367 179.521 116.3 168.4 116.628 158.081C116.687 155.832 116.899 153.589 117.263 151.368C117.263 151.368 109.51 148.388 104.126 145.72C101.556 144.449 99.5241 143.243 99.1359 142.467C97.9362 140.071 103.391 134.443 103.391 134.443C103.562 134.579 106.854 136.677 110.685 139.163C115.771 142.462 121.805 146.446 122.783 147.439C123.368 148.009 123.317 151.701 122.995 156.371Z" fill="#EEC1BB"/>
<path opacity="0.2" d="M122.995 156.371C120.926 157.122 118.796 157.691 116.628 158.071C116.687 155.822 116.899 153.579 117.263 151.358C117.263 151.358 109.51 148.378 104.126 145.71L110.68 139.153C115.766 142.452 121.8 146.436 122.778 147.429C123.368 148.009 123.317 151.701 122.995 156.371Z" fill="black"/>
<path d="M105.543 132.879C105.543 132.879 127.053 145.251 129.977 148.045C132.9 150.839 149.777 176.949 149.777 176.949L148.356 178.305C148.356 178.305 134.342 166.272 128.752 154.833L105.563 143.622L105.543 132.879Z" fill="#EEC1BB"/>
<path d="M89.1801 110.037C89.2148 110.061 89.252 110.082 89.291 110.098C89.8191 110.397 90.4019 110.588 91.0049 110.658C92.7591 110.814 93.8883 110.421 94.5336 109.543C95.4308 108.242 95.4107 106.164 94.9167 103.718C94.7531 102.739 94.4349 101.793 93.974 100.914C93.974 100.914 93.974 100.879 93.974 100.874L93.9135 100.773C93.6329 100.281 93.2335 99.8668 92.7518 99.569C92.2701 99.2712 91.7215 99.0989 91.1561 99.068C90.6638 99.0273 90.1685 99.0408 89.6791 99.1083C84.8902 99.7287 85.1473 107.808 89.1801 110.037Z" fill="#EEC1BB"/>
<path opacity="0.2" d="M89.3111 110.098C89.8405 110.381 90.422 110.552 91.02 110.602C92.7692 110.759 93.8933 110.305 94.5487 109.422C93.5682 109.813 92.4873 109.875 91.4686 109.599C91.0947 109.512 90.706 109.512 90.3321 109.599C89.9582 109.685 89.609 109.856 89.3111 110.098Z" fill="black"/>
<path d="M88.9885 114.042C88.5701 115.394 90.2991 116.11 90.2991 116.11C93.3237 115.101 94.0042 113.623 94.0042 113.623C91.6854 112.11 92.7037 108.61 92.7037 108.61L92.1996 108.812L88.6709 109.185C88.6709 109.185 89.4724 111.117 89.5631 111.55C90.0067 113.825 88.9885 114.042 88.9885 114.042Z" fill="#EBB376"/>
<path d="M94.0042 100.868C94.0042 100.868 94.7402 104.202 91.7509 106.093C91.7509 106.093 90.8688 109.79 88.8574 110.128C86.1151 110.582 83.146 107.006 83.5392 102.881C84.0534 97.5449 91.8266 96.0268 94.0042 100.868Z" fill="#263238"/>
<path d="M93.2128 104.903C93.1372 104.399 92.5928 103.552 91.7913 103.789C90.9897 104.026 90.7831 106.179 92.9305 106.356C93.2582 106.416 93.3892 106.013 93.2128 104.903Z" fill="#EBB376"/>
<path d="M148.84 175.345L146.521 177.13C146.474 177.168 146.44 177.222 146.427 177.281C146.413 177.34 146.419 177.403 146.445 177.458L147.625 179.98C147.65 180.033 147.686 180.081 147.73 180.121C147.774 180.16 147.825 180.191 147.881 180.21C147.937 180.23 147.996 180.239 148.055 180.235C148.114 180.232 148.172 180.217 148.225 180.192C148.255 180.178 148.284 180.161 148.311 180.141C149.248 179.39 149.278 179.274 150.473 178.356C151.204 177.791 153.498 176.157 154.506 175.375C155.514 174.593 154.879 173.489 154.395 173.716C152.217 174.724 150.362 175.264 149.354 175.188C149.169 175.174 148.986 175.23 148.84 175.345Z" fill="#263238"/>
<path d="M149.344 175.299C149.331 175.306 149.317 175.308 149.302 175.306C149.288 175.303 149.275 175.297 149.265 175.287C149.254 175.277 149.247 175.264 149.244 175.25C149.241 175.236 149.243 175.222 149.248 175.209C149.293 175.088 149.707 174.003 150.08 173.938C150.121 173.929 150.164 173.932 150.204 173.947C150.243 173.963 150.277 173.989 150.302 174.023C150.353 174.075 150.391 174.138 150.411 174.208C150.431 174.277 150.434 174.351 150.418 174.422C150.358 174.628 150.227 174.806 150.05 174.926C149.829 175.077 149.593 175.202 149.344 175.299ZM149.45 175.093C149.806 174.972 150.101 174.719 150.276 174.387C150.286 174.339 150.284 174.289 150.27 174.243C150.256 174.196 150.23 174.154 150.196 174.119C150.156 174.079 150.12 174.069 150.105 174.084C150.074 174.09 150.044 174.104 150.019 174.124C149.77 174.408 149.576 174.737 149.45 175.093Z" fill="#FF327B"/>
<path d="M149.339 175.325C149.326 175.325 149.314 175.322 149.302 175.317C149.291 175.312 149.281 175.304 149.273 175.294C149.273 175.259 148.769 174.518 148.875 174.074C148.887 174.02 148.91 173.969 148.942 173.924C148.974 173.879 149.015 173.84 149.062 173.811C149.105 173.777 149.158 173.758 149.213 173.758C149.268 173.758 149.321 173.777 149.364 173.811C149.611 174.028 149.535 174.931 149.389 175.259L149.364 175.284L149.339 175.325ZM149.001 174.084C149 174.432 149.103 174.773 149.299 175.062C149.419 174.685 149.401 174.277 149.248 173.912C149.248 173.912 149.193 173.857 149.122 173.912H149.092C149.042 173.957 149.01 174.018 149.001 174.084Z" fill="#FF327B"/>
<path d="M120.999 177.529L118.07 177.584C118.01 177.587 117.952 177.61 117.907 177.649C117.861 177.689 117.83 177.742 117.818 177.801L117.268 180.529C117.252 180.643 117.28 180.759 117.347 180.853C117.413 180.947 117.513 181.012 117.626 181.034C117.66 181.039 117.694 181.039 117.727 181.034C118.922 180.988 119.018 180.913 120.525 180.882C121.452 180.882 124.25 180.908 125.53 180.882C126.811 180.857 126.952 179.586 126.428 179.48C124.064 179.016 122.284 178.341 121.518 177.68C121.37 177.565 121.185 177.511 120.999 177.529Z" fill="#263238"/>
<path d="M121.261 177.851C121.246 177.849 121.232 177.842 121.222 177.831C121.212 177.82 121.206 177.806 121.205 177.791C121.201 177.777 121.202 177.763 121.208 177.75C121.213 177.737 121.223 177.727 121.236 177.72C121.341 177.65 122.314 177.024 122.657 177.191C122.696 177.208 122.729 177.236 122.752 177.272C122.776 177.308 122.788 177.35 122.788 177.392C122.798 177.464 122.79 177.537 122.764 177.605C122.739 177.673 122.697 177.733 122.642 177.781C122.473 177.903 122.266 177.962 122.057 177.947C121.789 177.946 121.522 177.914 121.261 177.851ZM121.467 177.745C121.825 177.86 122.213 177.833 122.551 177.67C122.587 177.637 122.614 177.596 122.63 177.55C122.645 177.504 122.65 177.455 122.642 177.408C122.642 177.352 122.612 177.327 122.597 177.327C122.565 177.32 122.532 177.32 122.501 177.327C122.133 177.4 121.782 177.542 121.467 177.745Z" fill="#FF327B"/>
<path d="M121.241 177.866C121.229 177.86 121.219 177.851 121.213 177.839C121.206 177.827 121.204 177.814 121.205 177.801C121.205 177.761 121.261 176.883 121.609 176.585C121.65 176.548 121.699 176.52 121.752 176.504C121.805 176.487 121.861 176.482 121.916 176.49C121.971 176.488 122.025 176.506 122.068 176.54C122.111 176.574 122.141 176.622 122.153 176.676C122.218 176.994 121.649 177.685 121.311 177.856H121.276C121.266 177.864 121.253 177.868 121.241 177.866ZM121.704 176.671C121.496 176.951 121.377 177.286 121.362 177.634C121.674 177.392 122.052 176.873 122.007 176.676C122.007 176.676 122.007 176.606 121.901 176.606H121.866C121.806 176.607 121.748 176.63 121.704 176.671Z" fill="#FF327B"/>
<path d="M104.943 129.566L94.2714 134.049C89.8606 123.08 83.8618 117.804 83.8618 117.804C88.1366 112.675 96.0307 110.315 96.0307 110.315C97.1967 111.264 98.2026 112.395 99.0099 113.664C99.9 115.042 100.676 116.491 101.329 117.996C102.914 121.723 104.125 125.599 104.943 129.566Z" fill="#FF327B"/>
<path d="M93.9034 103.098C93.9034 103.098 97.2556 99.6782 94.0446 97.4238C90.8335 95.1694 87.6476 98.1803 87.6476 98.1803C87.6476 98.1803 80.0206 100.102 81.6942 105.171C83.3678 110.239 84.4365 110.658 82.042 113.29C79.6476 115.923 77.2078 119.807 79.7081 122.253C82.2084 124.699 90.8284 122.076 93.4144 118.324C96.0004 114.571 91.2922 106.618 93.9034 103.098Z" fill="#263238"/>
<path d="M104.167 126.277L92.5726 130.256C92.5726 130.256 95.1384 142.89 96.9985 145.003C98.8587 147.117 111.295 156.901 113.054 156.129C114.813 155.358 126.483 145.003 126.483 145.003L106.738 131.457L104.167 126.277Z" fill="#263238"/>
<path d="M102.478 128.653L104.943 127.836L104.333 126.615L101.999 127.437L102.478 128.653Z" fill="black"/>
<path d="M95.1082 129.863L92.5827 130.751L92.9204 131.83L95.3905 131.008L95.1082 129.863Z" fill="black"/>
<path d="M95.9198 130.831L101.984 128.819L101.53 127.599L95.5871 129.692L95.9198 130.831Z" fill="black"/>
<path opacity="0.2" d="M101.329 118.016C98.778 117.719 97.3413 113.88 97.3413 113.88C97.8931 113.781 98.4503 113.716 99.0099 113.684C99.8999 115.062 100.675 116.511 101.329 118.016Z" fill="black"/>
<path d="M96.0307 110.315C98.8032 109.901 105.004 112.151 105.543 112.125C106.082 112.1 112.096 107.369 112.096 107.369L113.659 108.746C113.659 108.746 107.358 115.247 106.062 115.303C104.767 115.358 97.9967 114.869 97.9967 114.869C97.9967 114.869 96.3382 114.279 96.0206 112.781C95.8273 111.97 95.8307 111.124 96.0307 110.315Z" fill="#FF327B"/>
</svg>
