<svg width="235" height="176" viewBox="0 0 235 176" fill="none" xmlns="http://www.w3.org/2000/svg">
<path d="M234.722 154.427H0.308624V154.544H234.722V154.427Z" fill="#E0E0E0"/>
<path d="M70.2153 159.813H49.4838V159.931H70.2153V159.813Z" fill="#E0E0E0"/>
<path d="M46.0473 159.87H37.9835V159.987H46.0473V159.87Z" fill="#E0E0E0"/>
<path d="M107.717 159.082H97.9136V159.199H107.717V159.082Z" fill="#E0E0E0"/>
<path d="M131.669 157.816H105.752V157.934H131.669V157.816Z" fill="#E0E0E0"/>
<path d="M178.477 159.987H172.213V160.104H178.477V159.987Z" fill="#E0E0E0"/>
<path d="M169.611 159.987H167.567V160.104H169.611V159.987Z" fill="#E0E0E0"/>
<path d="M210.601 158.693H183.995V158.81H210.601V158.693Z" fill="#E0E0E0"/>
<path d="M111.42 133.52H20.8948C20.1856 133.518 19.5059 133.236 19.0049 132.734C18.5039 132.232 18.2225 131.552 18.2225 130.843V3.6016C18.2286 2.89657 18.5128 2.22244 19.0131 1.72564C19.5135 1.22885 20.1897 0.949511 20.8948 0.948303H111.42C112.13 0.948303 112.811 1.23032 113.313 1.7323C113.815 2.23429 114.097 2.91513 114.097 3.62504V130.843C114.097 131.553 113.815 132.234 113.313 132.736C112.811 133.238 112.13 133.52 111.42 133.52ZM20.8948 1.04206C20.2167 1.0433 19.5668 1.31351 19.0878 1.79339C18.6087 2.27326 18.3397 2.92358 18.3397 3.6016V130.843C18.3397 131.521 18.6087 132.171 19.0878 132.651C19.5668 133.131 20.2167 133.401 20.8948 133.402H111.42C112.099 133.4 112.748 133.129 113.228 132.65C113.707 132.17 113.978 131.521 113.98 130.843V3.6016C113.978 2.92353 113.707 2.27393 113.228 1.79446C112.748 1.31499 112.099 1.04453 111.42 1.04206H20.8948Z" fill="#FF327B"/>
<path d="M212.832 133.52H122.302C121.593 133.517 120.913 133.234 120.412 132.733C119.91 132.231 119.627 131.552 119.625 130.843V3.6016C119.632 2.89614 119.917 2.22202 120.419 1.72535C120.92 1.22869 121.596 0.949498 122.302 0.948303H212.832C213.537 0.950743 214.212 1.23063 214.711 1.72729C215.21 2.22395 215.494 2.89738 215.5 3.6016V130.843C215.501 131.194 215.432 131.541 215.298 131.866C215.165 132.19 214.968 132.485 214.721 132.734C214.473 132.982 214.179 133.179 213.855 133.314C213.531 133.449 213.183 133.519 212.832 133.52ZM122.302 1.04206C121.624 1.04453 120.974 1.31499 120.495 1.79446C120.015 2.27393 119.745 2.92353 119.742 3.6016V130.843C119.745 131.521 120.015 132.17 120.495 132.65C120.974 133.129 121.624 133.4 122.302 133.402H212.832C213.51 133.4 214.16 133.129 214.64 132.65C215.119 132.17 215.39 131.521 215.392 130.843V3.6016C215.39 2.92353 215.119 2.27393 214.64 1.79446C214.16 1.31499 213.51 1.04453 212.832 1.04206H122.302Z" fill="#FF327B"/>
<path d="M195.65 11.6177H137.553V102.542H195.65V11.6177Z" fill="#E0E0E0"/>
<path d="M198.205 11.6177H138.748V102.542H198.205V11.6177Z" fill="#EBEBEB"/>
<path d="M195.65 102.547H137.553V107.287H195.65V102.547Z" fill="#E6E6E6"/>
<path d="M202.452 102.547H142.996V107.287H202.452V102.547Z" fill="#F0F0F0"/>
<path d="M194.633 15.1899H142.321V98.9751H194.633V15.1899Z" fill="#FAFAFA"/>
<path d="M161.097 98.9751L172.79 15.1899H182.687L170.994 98.9751H161.097Z" fill="white"/>
<path d="M144.707 92.3606C144.64 92.3593 144.575 92.3316 144.528 92.2834C144.48 92.2352 144.454 92.1703 144.454 92.1027V17.515C144.449 17.4815 144.451 17.4474 144.46 17.4146C144.469 17.3818 144.483 17.3511 144.504 17.3241C144.524 17.2971 144.55 17.2744 144.579 17.2573C144.608 17.2402 144.641 17.229 144.674 17.2244C144.708 17.2198 144.742 17.2218 144.775 17.2304C144.808 17.239 144.838 17.2539 144.865 17.2744C144.892 17.2948 144.915 17.3204 144.932 17.3496C144.949 17.3789 144.96 17.4112 144.965 17.4447C144.97 17.4679 144.97 17.4918 144.965 17.515V92.1027C144.965 92.1711 144.938 92.2367 144.889 92.285C144.841 92.3334 144.776 92.3606 144.707 92.3606Z" fill="#E6E6E6"/>
<path d="M173.118 98.9751L184.811 15.1899H188.669L176.976 98.9751H173.118Z" fill="white"/>
<path d="M194.633 15.1899H194.178V98.9751H194.633V15.1899Z" fill="#E6E6E6"/>
<path d="M199.044 17.9322H140.952L140.624 16.5775H198.716L199.044 17.9322Z" fill="#E0E0E0"/>
<path d="M199.044 18.9214H140.952L140.624 17.5713H198.716L199.044 18.9214Z" fill="#E0E0E0"/>
<path d="M199.044 20.112H140.952L140.624 18.7573H198.716L199.044 20.112Z" fill="#E0E0E0"/>
<path d="M199.044 21.4387H140.952L140.624 20.0839H198.716L199.044 21.4387Z" fill="#E0E0E0"/>
<path d="M199.044 23.0232H140.952L140.624 21.6684H198.716L199.044 23.0232Z" fill="#E0E0E0"/>
<path d="M199.044 24.8092H140.952L140.624 23.4545H198.716L199.044 24.8092Z" fill="#E0E0E0"/>
<path d="M43.5813 90.9542C43.5813 92.3605 44.5705 93.3637 43.15 93.3637C41.7294 93.3637 38.4617 92.3746 38.4617 90.9542C38.4617 90.2704 38.7334 89.6146 39.2169 89.1311C39.7005 88.6476 40.3564 88.3759 41.0402 88.3759C41.7241 88.3759 42.38 88.6476 42.8636 89.1311C43.3471 89.6146 43.6188 90.2704 43.6188 90.9542H43.5813Z" fill="#E0E0E0"/>
<path d="M47.9789 92.1871C47.9789 93.5935 48.9681 94.5919 47.5476 94.5919C46.127 94.5919 42.8593 93.6028 42.8593 92.1871C42.8593 91.5033 43.131 90.8475 43.6146 90.364C44.0981 89.8805 44.754 89.6088 45.4379 89.6088C46.1217 89.6088 46.7776 89.8805 47.2612 90.364C47.7447 90.8475 48.0164 91.5033 48.0164 92.1871H47.9789Z" fill="#E0E0E0"/>
<path d="M52.1936 91.423C52.1936 92.8294 53.1829 93.8279 51.7623 93.8279C50.3418 93.8279 47.074 92.8387 47.074 91.423C47.074 90.7392 47.3457 90.0834 47.8293 89.5999C48.3129 89.1164 48.9687 88.8447 49.6526 88.8447C50.3365 88.8447 50.9923 89.1164 51.4759 89.5999C51.9595 90.0834 52.2311 90.7392 52.2311 91.423H52.1936Z" fill="#E0E0E0"/>
<path d="M36.8771 91.7652C36.8771 91.7652 37.088 96.7765 45.1425 96.7765C53.1969 96.7765 53.4079 91.7652 53.4079 91.7652H36.8771Z" fill="#F0F0F0"/>
<path d="M131.716 96.7812H128.064V154.427H131.716V96.7812Z" fill="#E0E0E0"/>
<path d="M132.869 96.7812H130.333V154.427H132.869V96.7812Z" fill="#F0F0F0"/>
<path d="M133.657 96.7812H57.8242V101.267H133.657V96.7812Z" fill="#F0F0F0"/>
<path d="M56.188 101.267H52.5359V154.427H56.188V101.267Z" fill="#E0E0E0"/>
<path d="M57.3413 101.267H54.805V154.427H57.3413V101.267Z" fill="#F0F0F0"/>
<path d="M33.0749 101.267H29.4227V154.427H33.0749V101.267Z" fill="#E0E0E0"/>
<path d="M34.2282 101.267H31.6919V154.427H34.2282V101.267Z" fill="#F0F0F0"/>
<path d="M108.603 101.267H104.951V154.427H108.603V101.267Z" fill="#E0E0E0"/>
<path d="M109.756 101.267H107.22V154.427H109.756V101.267Z" fill="#F0F0F0"/>
<path d="M57.8242 96.7812H29.4227V101.267H57.8242V96.7812Z" fill="#E0E0E0"/>
<path d="M57.3413 77.7862H87.8245L92.2408 95.7827H61.7577L57.3413 77.7862Z" fill="#E0E0E0"/>
<path d="M61.7577 95.7827L61.8843 96.7812H92.3674L92.2455 95.7827H61.7577Z" fill="#E0E0E0"/>
<path d="M58.279 77.7862H88.7621L93.1784 95.7827H62.7L58.279 77.7862Z" fill="#F0F0F0"/>
<path d="M63.3423 94.9623L59.3292 78.6066H88.1198L92.133 94.9623H63.3423Z" fill="white"/>
<path d="M70.6419 95.7827L70.7638 96.7812H104.332L104.21 95.7827H70.6419Z" fill="#EBEBEB"/>
<path d="M129.531 89.4448C129.443 89.4495 129.356 89.4589 129.269 89.4729V88.8822C129.269 88.6858 129.191 88.4974 129.052 88.3585C128.913 88.2196 128.724 88.1415 128.528 88.1415H122.743C122.546 88.1415 122.358 88.2196 122.219 88.3585C122.08 88.4974 122.002 88.6858 122.002 88.8822V96.7765H129.269V95.4498C129.356 95.4623 129.443 95.4701 129.531 95.4733C129.818 95.4733 130.102 95.4168 130.367 95.307C130.632 95.1972 130.873 95.0363 131.076 94.8334C131.279 94.6306 131.44 94.3898 131.55 94.1247C131.659 93.8597 131.716 93.5756 131.716 93.2888V91.634C131.716 91.0542 131.486 90.498 131.076 90.0876C130.667 89.6772 130.111 89.446 129.531 89.4448ZM130.778 93.2888C130.778 93.6195 130.647 93.9366 130.413 94.1705C130.179 94.4043 129.862 94.5357 129.531 94.5357C129.443 94.5359 129.355 94.5264 129.269 94.5076V90.4104C129.355 90.3916 129.443 90.3822 129.531 90.3823C129.862 90.3836 130.18 90.516 130.413 90.7506C130.647 90.9852 130.778 91.3028 130.778 91.634V93.2888Z" fill="#E6E6E6"/>
<path d="M98.1011 154.427H97.0885L94.1864 140.139L93.6801 137.635L90.5155 122.067H78.3917L71.8281 154.413H70.8154L77.5103 121.458C77.5272 121.346 77.584 121.244 77.6702 121.171C77.7563 121.098 77.866 121.058 77.9791 121.059H90.914C91.0271 121.058 91.1368 121.098 91.223 121.171C91.3091 121.244 91.3659 121.346 91.3829 121.458L94.163 135.132L94.6693 137.631L98.1011 154.427Z" fill="#E0E0E0"/>
<path d="M117.571 154.427H116.578L110.014 122.081H97.8573L94.6927 137.659L94.1864 140.176L91.2844 154.465H90.2717L93.6801 137.673L94.1864 135.184L96.9619 121.509C96.9847 121.4 97.0431 121.302 97.128 121.23C97.2129 121.158 97.3194 121.116 97.4307 121.111H110.366C110.479 121.11 110.588 121.149 110.675 121.222C110.761 121.296 110.817 121.398 110.834 121.509L117.571 154.427Z" fill="#E0E0E0"/>
<path d="M87.6791 121.57H109.962C112.005 121.57 113.967 120.769 115.427 119.34C116.887 117.911 117.729 115.967 117.773 113.924L118.603 80.0644C118.618 79.3177 118.487 78.5751 118.215 77.8793C117.944 77.1834 117.538 76.5479 117.02 76.0089C116.503 75.47 115.885 75.0382 115.201 74.7383C114.517 74.4384 113.78 74.2762 113.033 74.2609H98.945C97.5476 74.2611 96.1992 74.7752 95.1565 75.7054C94.1138 76.6356 93.4498 77.9168 93.291 79.305L87.6791 121.57Z" fill="#F0F0F0"/>
<path d="M99.8311 121.57H76.0897C75.795 121.57 75.5124 121.453 75.304 121.245C75.0957 121.037 74.9786 120.754 74.9786 120.459V120.356C74.978 119.955 75.0565 119.558 75.2097 119.188C75.3628 118.817 75.5876 118.48 75.8712 118.197C76.1547 117.913 76.4914 117.689 76.862 117.535C77.2325 117.382 77.6297 117.304 78.0307 117.304H99.8311V121.57Z" fill="#F0F0F0"/>
<path d="M95.5366 14.3461H31.5793V64.5994H95.5366V14.3461Z" fill="#E0E0E0"/>
<path d="M96.2868 14.3461H32.3295V64.5994H96.2868V14.3461Z" fill="#EBEBEB"/>
<path d="M92.0767 18.5557H36.5395V60.3897H92.0767V18.5557Z" fill="white"/>
<path opacity="0.5" d="M36.5395 31.541V60.3897H84.7536C86.2257 54.4221 84.327 48.4171 76.7836 45.145C70.2716 42.3323 62.5125 45.3653 55.7427 43.9215C47.9273 42.2526 45.3394 35.849 38.9165 32.5535C38.149 32.1604 37.3547 31.822 36.5395 31.541Z" fill="#E6E6E6"/>
<path opacity="0.7" d="M36.5395 18.5557V20.1965C41.9498 24.5936 48.6024 32.9051 55.7145 35.1506C66.9664 38.7086 82.0907 29.0939 82.7752 18.5557H36.5395Z" fill="#E6E6E6"/>
<path d="M82.4845 41.7838C84.6505 47.3529 88.0682 51.5813 92.0767 55.355V20.7496C84.3692 23.0607 78.8276 32.3848 82.4845 41.7838Z" fill="#E6E6E6"/>
<path d="M117.515 175.597C167.718 175.597 208.416 173.221 208.416 170.291C208.416 167.36 167.718 164.984 117.515 164.984C67.3121 164.984 26.6145 167.36 26.6145 170.291C26.6145 173.221 67.3121 175.597 117.515 175.597Z" fill="#F5F5F5"/>
<path d="M35.0299 169.231V170.291H200.001V101.881H188.913L169.864 114.332H151.697L131.327 127.646V133.004H122.949L99.7655 148.155H84.3645L65.1801 160.695H51.4763L35.0299 169.231Z" fill="#FF327B"/>
<path opacity="0.2" d="M35.0299 169.231V170.291H200.001V101.881H188.913L169.864 114.332H151.697L131.327 127.646V133.004H122.949L99.7655 148.155H84.3645L65.1801 160.695H51.4763L35.0299 169.231Z" fill="black"/>
<path d="M46.1176 170.291H200.001V102.941L180.952 115.387H162.785L142.415 128.7V134.063H134.037L110.853 149.214H95.4523L76.2726 161.754H62.5641L46.1176 170.291Z" fill="#FF327B"/>
<path opacity="0.1" d="M46.1176 170.291H200.001V102.941L180.952 115.387H162.785L142.415 128.7V134.063H134.037L110.853 149.214H95.4523L76.2726 161.754H62.5641L46.1176 170.291Z" fill="white"/>
<path d="M78.6026 43.9308C77.9463 44.6949 77.1961 45.5481 76.5538 46.3872C75.9116 47.2263 75.2083 48.0795 74.5707 48.9467C73.2987 50.6285 72.1532 52.4022 71.1436 54.2533L70.8013 54.9331L70.6748 55.1909C70.6372 55.2612 70.6091 55.3597 70.5716 55.444C70.4207 55.8758 70.3001 56.3175 70.2106 56.766C70.0137 57.7411 69.8637 58.8005 69.7418 59.874C69.5214 62.021 69.3761 64.2665 69.2401 66.4698L66.6663 66.6995C66.169 64.4203 65.8554 62.1049 65.7286 59.7756C65.6622 58.5633 65.6778 57.348 65.7755 56.1378C65.8237 55.4676 65.9288 54.8026 66.0896 54.1502C66.1412 53.9674 66.1787 53.7939 66.249 53.6017C66.3194 53.4095 66.385 53.1986 66.4366 53.0767L66.7882 52.2141C67.2674 51.0886 67.8138 49.9928 68.4244 48.9327C69.0104 47.8826 69.6621 46.8888 70.2997 45.9137C70.9373 44.9387 71.664 43.9917 72.4 43.101C72.7657 42.6323 73.1408 42.1635 73.5205 41.7369C73.9003 41.3103 74.28 40.8649 74.7207 40.3915L78.6026 43.9308Z" fill="#E4897B"/>
<path d="M79.4512 45.1121C78.9824 45.9793 78.4526 46.8185 77.9416 47.6013C77.0602 48.9561 76.2069 50.128 75.5974 50.9344C75.0489 51.661 74.6973 52.0875 74.6973 52.0875L67.754 47.3576C67.754 47.3576 71.9734 39.1445 75.2224 38.6195C78.5698 38.0898 81.6312 41.2212 79.4512 45.1121Z" fill="#FF327B"/>
<path opacity="0.3" d="M79.4512 45.1121C78.9824 45.9793 78.4526 46.8185 77.9416 47.6013C77.0602 48.9561 76.2069 50.128 75.5974 50.9344C75.0489 51.661 74.6973 52.0875 74.6973 52.0875L67.754 47.3576C67.754 47.3576 71.9734 39.1445 75.2224 38.6195C78.5698 38.0898 81.6312 41.2212 79.4512 45.1121Z" fill="black"/>
<path d="M91.6829 145.272H95.1241L95.4663 137.298H92.0251L91.6829 145.272Z" fill="#E4897B"/>
<path d="M58.1899 130.416L60.9841 132.432L67.5758 127.355L64.7816 125.339L58.1899 130.416Z" fill="#E4897B"/>
<path d="M95.4663 137.298L95.2928 141.409H91.847L92.0204 137.298H95.4663Z" fill="#CE6F64"/>
<path d="M64.7816 125.339L67.5758 127.355L64.1721 129.971L61.3826 127.955L64.7816 125.339Z" fill="#CE6F64"/>
<path d="M88.1901 68.5652C88.1901 68.5652 88.5839 93.0731 85.5037 102.683C80.6279 117.904 65.8974 130.233 65.8974 130.233L60.6277 126.432C60.6277 126.432 72.8876 116.015 75.1614 103.199C77.1821 91.6808 76.3241 77.9737 76.3241 68.5652H88.1901Z" fill="#FF327B"/>
<path opacity="0.7" d="M88.1901 68.5652C88.1901 68.5652 88.5839 93.0731 85.5037 102.683C80.6279 117.904 65.8974 130.233 65.8974 130.233L60.6277 126.432C60.6277 126.432 72.8876 116.015 75.1614 103.199C77.1821 91.6808 76.3241 77.9737 76.3241 68.5652H88.1901Z" fill="white"/>
<path d="M69.362 65.8369L70.6044 68.0683L66.2537 68.7152C66.2537 68.7152 65.8083 66.8401 66.8819 65.5463L69.362 65.8369Z" fill="#E4897B"/>
<path d="M71.2608 71.0357L67.6415 71.4014L66.2537 68.7153L70.6044 68.0684L71.2608 71.0357Z" fill="#E4897B"/>
<path d="M91.3266 26.0046C91.3688 26.2765 91.5469 26.4734 91.7298 26.4734C91.9126 26.4734 92.0158 26.1968 91.9736 25.9249C91.9314 25.653 91.7532 25.4561 91.5704 25.4561C91.3875 25.4561 91.2844 25.728 91.3266 26.0046Z" fill="#263238"/>
<path d="M91.5235 26.4828C91.9818 27.2693 92.5466 27.9886 93.2019 28.6204C93.0372 28.7865 92.8381 28.9145 92.6186 28.9955C92.3991 29.0765 92.1645 29.1085 91.9314 29.0892L91.5235 26.4828Z" fill="#DE5753"/>
<path d="M90.0889 24.6358C90.0679 24.6364 90.0471 24.6329 90.0275 24.6255C90.0079 24.618 89.99 24.6068 89.9748 24.5924C89.9595 24.5781 89.9473 24.5608 89.9387 24.5417C89.9301 24.5226 89.9254 24.502 89.9248 24.4811C89.9247 24.4584 89.9293 24.4358 89.9381 24.4149C89.947 24.3939 89.96 24.375 89.9763 24.3592C90.1564 24.1746 90.378 24.0358 90.6227 23.9542C90.8674 23.8727 91.128 23.8508 91.3828 23.8904C91.404 23.8943 91.4241 23.9025 91.442 23.9143C91.46 23.9262 91.4753 23.9416 91.4871 23.9595C91.4989 23.9775 91.507 23.9977 91.5108 24.0188C91.5147 24.04 91.5142 24.0617 91.5094 24.0826C91.5055 24.1033 91.4975 24.123 91.4859 24.1405C91.4744 24.1581 91.4594 24.1732 91.442 24.185C91.4246 24.1967 91.405 24.2049 91.3844 24.2091C91.3637 24.2132 91.3425 24.2133 91.3219 24.2092C91.1191 24.1816 90.9127 24.2024 90.7195 24.2701C90.5263 24.3377 90.352 24.4502 90.2108 24.5983C90.1943 24.6128 90.1749 24.6237 90.1539 24.6302C90.1328 24.6366 90.1107 24.6386 90.0889 24.6358Z" fill="#263238"/>
<path d="M82.1657 29.0283C82.6626 31.5456 83.1549 36.1631 81.3921 37.8413C81.3921 37.8413 82.0813 40.4009 86.7602 40.4009C91.9173 40.4009 89.2215 37.8413 89.2215 37.8413C86.4086 37.171 86.4836 35.0896 86.9758 33.1535L82.1657 29.0283Z" fill="#E4897B"/>
<path d="M79.4793 39.5477C80.0372 38.6758 79.0996 36.5756 79.0996 36.5756C79.0996 36.5756 87.3931 34.4896 90.778 37.6913C91.4813 38.3523 90.703 39.3274 90.703 39.3274L79.4793 39.5477Z" fill="#FF327B"/>
<path d="M62.4562 134.082C62.0202 134.082 61.3826 133.229 61.2045 132.924C61.1956 132.911 61.1909 132.895 61.1909 132.88C61.1909 132.864 61.1956 132.848 61.2045 132.835C61.2139 132.823 61.2261 132.814 61.2401 132.808C61.254 132.803 61.2692 132.801 61.2842 132.802C61.331 132.802 62.4609 133.046 62.7235 133.491C62.7534 133.538 62.7727 133.591 62.78 133.646C62.7873 133.701 62.7824 133.757 62.7657 133.81C62.7 134.012 62.5781 134.068 62.489 134.077L62.4562 134.082ZM61.4483 133.009C61.7436 133.44 62.2312 133.946 62.475 133.918C62.4984 133.918 62.5687 133.918 62.6156 133.759C62.6251 133.728 62.6275 133.696 62.6227 133.664C62.6178 133.632 62.6058 133.602 62.5875 133.576C62.2722 133.275 61.8766 133.071 61.4483 132.99V133.009Z" fill="#FF327B"/>
<path d="M61.8327 133.013C61.635 133.018 61.4376 132.994 61.2467 132.943C61.2351 132.935 61.2255 132.925 61.219 132.912C61.2124 132.9 61.2089 132.886 61.2089 132.873C61.2089 132.859 61.2124 132.845 61.219 132.833C61.2255 132.82 61.2351 132.81 61.2467 132.802C61.2795 132.774 62.053 132.155 62.5641 132.207C62.6264 132.214 62.6868 132.233 62.7415 132.264C62.7963 132.294 62.8444 132.336 62.8829 132.385C62.926 132.43 62.9519 132.488 62.9562 132.55C62.9605 132.611 62.9428 132.673 62.9063 132.723C62.7375 132.929 62.2593 133.013 61.8327 133.013ZM61.4623 132.826C61.8983 132.891 62.6156 132.826 62.7516 132.629C62.7627 132.605 62.7664 132.578 62.7622 132.553C62.758 132.527 62.7461 132.503 62.7282 132.483C62.7037 132.451 62.6727 132.424 62.6371 132.405C62.6015 132.386 62.5623 132.374 62.5219 132.371C62.1308 132.412 61.7613 132.57 61.4623 132.826Z" fill="#FF327B"/>
<path d="M96.5071 145.45C96.1534 145.445 95.8007 145.412 95.4522 145.352C95.4358 145.349 95.4206 145.341 95.4089 145.329C95.3971 145.317 95.3893 145.302 95.3866 145.286C95.3837 145.269 95.3863 145.252 95.3939 145.237C95.4014 145.222 95.4137 145.209 95.4288 145.201C95.4803 145.173 96.6806 144.484 97.2572 144.644C97.3107 144.656 97.3611 144.679 97.4055 144.711C97.4498 144.743 97.4871 144.784 97.5151 144.831C97.5518 144.883 97.5715 144.946 97.5715 145.009C97.5715 145.073 97.5518 145.135 97.5151 145.187C97.3791 145.389 96.9525 145.45 96.5071 145.45ZM95.7148 145.23C96.3571 145.323 97.2291 145.314 97.3885 145.094C97.4117 145.035 97.4117 144.97 97.3885 144.911C97.3708 144.881 97.347 144.856 97.3187 144.837C97.2904 144.817 97.2582 144.804 97.2244 144.798C96.8587 144.705 96.1367 145.014 95.7148 145.23Z" fill="#FF327B"/>
<path d="M95.4804 145.333H95.4335C95.4217 145.324 95.4125 145.313 95.4067 145.3C95.4009 145.287 95.3988 145.272 95.4007 145.258C95.4393 144.767 95.6312 144.302 95.9492 143.926C96.014 143.873 96.0888 143.833 96.1693 143.809C96.2499 143.784 96.3344 143.777 96.418 143.786C96.4881 143.778 96.5585 143.797 96.6145 143.84C96.6705 143.883 96.7076 143.946 96.7181 144.016C96.7837 144.405 95.9586 145.15 95.546 145.337L95.4804 145.333ZM96.3243 143.926C96.2201 143.928 96.1195 143.964 96.0383 144.03C95.7779 144.329 95.6144 144.7 95.5694 145.094C95.9961 144.836 96.554 144.25 96.5071 144.02C96.5071 144.02 96.5071 143.941 96.3477 143.926H96.3243Z" fill="#FF327B"/>
<path d="M61.3826 132.404L58.7056 129.591C58.6575 129.542 58.5943 129.511 58.5262 129.503C58.4582 129.494 58.3892 129.509 58.3306 129.544L55.6536 131.176C55.5968 131.209 55.5473 131.254 55.5079 131.307C55.4685 131.36 55.4399 131.42 55.4237 131.484C55.4076 131.548 55.4043 131.615 55.414 131.68C55.4237 131.745 55.4461 131.808 55.4801 131.865C55.5029 131.9 55.5296 131.933 55.5598 131.963C56.4975 132.901 57.0225 133.337 58.1993 134.565C58.926 135.32 60.8997 137.973 61.8983 139.018C62.897 140.064 64.0643 139.206 63.7455 138.69C62.339 136.374 61.6546 134.077 61.6171 132.934C61.6077 132.734 61.5241 132.545 61.3826 132.404Z" fill="#263238"/>
<path d="M95.1006 144.864H91.35C91.2819 144.864 91.2158 144.887 91.1629 144.929C91.1099 144.972 91.0733 145.032 91.0593 145.098L90.3748 148.145C90.3453 148.275 90.3682 148.41 90.4385 148.523C90.5088 148.635 90.6207 148.715 90.7499 148.746C90.7904 148.75 90.8313 148.75 90.8718 148.746C92.2314 148.746 94.1911 148.642 95.8976 148.642C97.8901 148.642 99.6107 148.75 101.95 148.75C103.357 148.75 103.755 147.32 103.164 147.194C100.469 146.603 98.2698 146.538 95.9398 145.103C95.6872 144.948 95.3969 144.865 95.1006 144.864Z" fill="#263238"/>
<path opacity="0.3" d="M77.9416 47.6014C77.0602 48.9561 76.2069 50.1281 75.5975 50.9344C75.6678 49.3218 76.0007 46.7154 77.2524 44.7277C77.7072 45.1778 77.89 46.3403 77.9416 47.6014Z" fill="black"/>
<path d="M96.8868 42.0182C97.0743 42.3135 97.4166 42.7635 97.7307 43.1808C98.0448 43.598 98.4058 44.0246 98.7621 44.4465C99.4794 45.2856 100.211 46.12 100.975 46.9216C102.447 48.5146 104.06 49.9707 105.795 51.2719C106.198 51.5664 106.615 51.8402 107.046 52.0923L107.332 52.2564C107.365 52.2564 107.379 52.2986 107.44 52.3173L107.515 52.3501L107.618 52.3829C107.695 52.4066 107.773 52.4254 107.853 52.4392C108.787 52.5697 109.735 52.5571 110.666 52.4017C112.862 52.0542 115.033 51.5593 117.164 50.9203L118.275 53.2642C116.186 54.6147 113.923 55.673 111.547 56.4098C110.204 56.8447 108.795 57.043 107.384 56.9957C107.172 56.9855 106.961 56.9636 106.751 56.9301L106.427 56.8692L106.081 56.7848C105.837 56.7189 105.599 56.6359 105.368 56.5363L105.223 56.4754L105.105 56.4191L104.871 56.3066C104.266 56.0113 103.68 55.6878 103.108 55.3363C100.998 53.962 99.0424 52.3636 97.2759 50.5688C96.4086 49.6921 95.5647 48.8014 94.7724 47.8545C94.3692 47.3857 93.9801 46.917 93.591 46.3919C93.1658 45.8487 92.7758 45.2787 92.4236 44.6856L96.8868 42.0182Z" fill="#E4897B"/>
<path d="M116.61 51.5438L118.898 48.8202L120.455 52.7954C120.455 52.7954 118.481 53.733 116.943 53.1939L116.61 51.5438Z" fill="#E4897B"/>
<path d="M122.255 48.2296L122.893 51.4079L120.455 52.7955L118.903 48.8202L122.255 48.2296Z" fill="#E4897B"/>
<path d="M82.0813 26.8532C82.8127 30.1909 83.0752 32.1832 85.049 33.6458C88.0167 35.849 91.9361 33.6458 92.2127 30.1627C92.4611 27.0219 91.2187 22.0903 87.7119 21.2559C86.9383 21.0699 86.13 21.0851 85.3639 21.2999C84.5978 21.5148 83.8995 21.9222 83.3354 22.4833C82.7714 23.0445 82.3605 23.7407 82.1418 24.5056C81.9231 25.2705 81.9039 26.0787 82.086 26.8532H82.0813Z" fill="#E4897B"/>
<path d="M80.6701 20.3324C77.74 20.4121 77.3883 23.2951 78.8417 24.1436C78.8417 24.1436 77.1539 24.9546 78.0213 26.8906C79.3434 29.8299 81.875 33.0598 84.4629 32.8816C87.6744 32.6613 88.5886 29.1642 88.4761 25.714C90.1686 24.1155 89.1465 23.3373 90.8202 22.3622C93.7832 20.6371 95.2835 15.6915 90.3514 15.7665C85.2975 15.8462 88.1479 20.1308 80.6701 20.3324Z" fill="#263238"/>
<path d="M79.2074 23.7216C79.2074 23.7216 78.0775 24.3076 76.3382 23.295C76.943 24.7764 78.7995 25.3858 79.2074 23.7216Z" fill="#263238"/>
<path d="M86.7133 26.5437C86.8042 27.3885 87.1717 28.1796 87.7588 28.7939C88.5371 29.5955 89.3013 29.0517 89.3997 28.0391C89.4888 27.1297 89.1888 25.6156 88.2558 25.1936C87.3228 24.7717 86.6149 25.5218 86.7133 26.5437Z" fill="#E4897B"/>
<path d="M68.1384 129.122L65.9771 130.411L60.2199 126.258L62.1374 124.791L68.1384 129.122Z" fill="#FF327B"/>
<path d="M84.7489 72.7749C84.0973 77.1908 86.3992 89.4869 87.1962 93.5137C88.0307 85.9851 88.1854 77.0548 88.1995 72.1795C86.5117 71.0357 85.049 70.7404 84.7489 72.7749Z" fill="#FF327B"/>
<path opacity="0.4" d="M84.7489 72.7749C84.0973 77.1908 86.3992 89.4869 87.1962 93.5137C88.0307 85.9851 88.1854 77.0548 88.1995 72.1795C86.5117 71.0357 85.049 70.7404 84.7489 72.7749Z" fill="white"/>
<path d="M94.7209 68.5652C94.7209 68.5652 99.9108 90.5511 100.276 101.052C100.684 112.832 96.5727 140.612 96.5727 140.612H90.7405C90.7405 140.612 90.0232 112.617 89.7607 101.886C89.4794 90.1901 82.6158 68.5652 82.6158 68.5652H94.7209Z" fill="#FF327B"/>
<path opacity="0.7" d="M94.7209 68.5652C94.7209 68.5652 99.9108 90.5511 100.276 101.052C100.684 112.832 96.5727 140.612 96.5727 140.612H90.7405C90.7405 140.612 90.0232 112.617 89.7607 101.886C89.4794 90.1901 82.6158 68.5652 82.6158 68.5652H94.7209Z" fill="white"/>
<path d="M97.6979 138.301C97.726 138.301 97.3697 140.72 97.3697 140.72H90.2717L90.0795 138.559L97.6979 138.301Z" fill="#FF327B"/>
<path d="M96.2117 50.0249C96.2117 51.1969 96.1836 52.486 96.118 53.9064C95.9492 57.7692 95.5273 62.5836 94.7115 68.5652H76.3007C76.1741 65.7525 77.951 51.9423 75.2224 38.6195C77.2678 38.2268 79.3366 37.9669 81.4156 37.8413C84.0232 37.6913 86.6373 37.6913 89.245 37.8413C91.032 38.0199 92.803 38.3333 94.5427 38.7789C94.5427 38.7789 96.2164 40.715 96.2117 50.0249Z" fill="#FF327B"/>
<path opacity="0.3" d="M96.2117 50.0249C96.2117 51.1969 96.1836 52.486 96.118 53.9064C95.9492 57.7692 95.5273 62.5836 94.7115 68.5652H76.3007C76.1741 65.7525 77.951 51.9423 75.2224 38.6195C77.2678 38.2268 79.3366 37.9669 81.4156 37.8413C84.0232 37.6913 86.6373 37.6913 89.245 37.8413C91.032 38.0199 92.803 38.3333 94.5427 38.7789C94.5427 38.7789 96.2164 40.715 96.2117 50.0249Z" fill="black"/>
<path opacity="0.3" d="M96.2117 50.0249C96.2117 51.1969 96.1836 52.486 96.118 53.9064C93.9567 51.7969 93.8113 47.4888 93.8113 47.4888L96.2117 50.0249Z" fill="black"/>
<path d="M89.6107 42.8151C90.0185 46.0966 97.4635 53.0064 97.4635 53.0064L104.168 47.6951C102.483 45.201 100.512 42.9133 98.2933 40.879C93.4457 36.6694 89.1184 38.8914 89.6107 42.8151Z" fill="#FF327B"/>
<path opacity="0.3" d="M89.6107 42.8151C90.0185 46.0966 97.4635 53.0064 97.4635 53.0064L104.168 47.6951C102.483 45.201 100.512 42.9133 98.2933 40.879C93.4457 36.6694 89.1184 38.8914 89.6107 42.8151Z" fill="black"/>
<path d="M168.163 111.341L164.717 111.679L161.13 103.475L164.576 103.138L168.163 111.341Z" fill="#E4897B"/>
<path d="M191.098 101.028L188.097 102.96L182.659 96.6358L185.659 94.7045L191.098 101.028Z" fill="#E4897B"/>
<path d="M161.135 103.48L162.982 107.708H166.578L164.581 103.142L161.135 103.48Z" fill="#CE6F64"/>
<path d="M185.664 94.7045L182.659 96.6358L185.467 99.8939L188.467 97.9625L185.664 94.7045Z" fill="#CE6F64"/>
<path d="M138.612 23.7591C138.537 25.0342 138.378 26.1968 138.195 27.4062C138.012 28.6157 137.754 29.7876 137.464 30.9737C136.897 33.3895 136.019 35.7216 134.852 37.9116C134.545 38.4797 134.202 39.0277 133.826 39.5524C133.46 40.0727 133.071 40.5509 132.682 41.0149C131.903 41.9525 131.097 42.8198 130.277 43.6776C128.622 45.3793 126.934 47.006 125.12 48.5576L123.816 47.3013C125.256 45.4777 126.732 43.6729 128.134 41.8447C129.536 40.0164 130.989 38.1976 131.885 36.3693C132.799 34.3757 133.488 32.286 133.938 30.1392C134.187 29.0517 134.374 27.9406 134.552 26.8578C134.731 25.7749 134.862 24.6029 134.96 23.5763L138.612 23.7591Z" fill="#E4897B"/>
<path d="M137.178 0.517025C134.665 0.517025 131.814 3.21251 131.932 7.07996C132.049 10.9474 132.869 16.69 126.892 22.0059C129.039 26.6937 139.137 31.0862 145.879 27.7813C152.269 24.6499 149.63 7.29091 145.078 2.74373C142.527 0.198254 139.55 -0.654927 137.178 0.517025Z" fill="#263238"/>
<path d="M141.35 24.1998C141.163 25.3343 140.22 27.4813 139.475 29.0751C138.922 30.2283 138.472 31.0956 138.472 31.0956L137.815 30.8049L132.382 28.386C132.794 25.4562 133.465 22.2919 136.695 20.8527C138.711 19.962 141.683 22.1747 141.35 24.1998Z" fill="#FF327B"/>
<path opacity="0.6" d="M141.35 24.1998C141.163 25.3343 140.22 27.4813 139.475 29.0751C138.922 30.2283 138.472 31.0956 138.472 31.0956L137.815 30.8049L132.382 28.386C132.794 25.4562 133.465 22.2919 136.695 20.8527C138.711 19.962 141.683 22.1747 141.35 24.1998Z" fill="white"/>
<path d="M139.461 29.0751C138.908 30.2283 138.458 31.0956 138.458 31.0956L137.801 30.8049C137.89 29.647 138.12 27.8235 138.739 27.0031C139.125 27.6344 139.371 28.3409 139.461 29.0751Z" fill="#FF327B"/>
<path opacity="0.5" d="M139.461 29.108C138.908 30.2612 138.458 31.1284 138.458 31.1284L137.801 30.8378C137.89 29.6799 138.12 27.8563 138.739 27.0359C139.125 27.6673 139.371 28.3737 139.461 29.108Z" fill="white"/>
<path d="M157.834 36.9038L144.004 41.2634C134.44 22.3434 135.799 21.3403 135.799 21.3403C135.799 21.3403 138.008 20.0792 140.305 19.0292L141.35 18.5604C143.391 17.7482 145.487 17.0839 147.623 16.5728C147.937 16.4884 148.251 16.4134 148.561 16.3384C150.262 15.955 151.984 15.6717 153.718 15.4899C153.924 18.1104 154.131 20.3277 154.356 22.2544C154.646 24.767 154.96 26.7781 155.293 28.5173C155.916 31.3759 156.766 34.1802 157.834 36.9038Z" fill="#FF327B"/>
<path opacity="0.6" d="M157.834 36.9038L144.004 41.2634C134.44 22.3434 135.799 21.3403 135.799 21.3403C135.799 21.3403 138.008 20.0792 140.305 19.0292L141.35 18.5604C143.391 17.7482 145.487 17.0839 147.623 16.5728C147.937 16.4884 148.251 16.4134 148.561 16.3384C150.262 15.955 151.984 15.6717 153.718 15.4899C153.924 18.1104 154.131 20.3277 154.356 22.2544C154.646 24.767 154.96 26.7781 155.293 28.5173C155.916 31.3759 156.766 34.1802 157.834 36.9038Z" fill="white"/>
<path d="M144.004 41.2634C144.004 41.2634 143.535 69.5778 147.234 79.8066C150.797 89.6135 161.426 106.471 161.426 106.471L167.586 106.311C167.586 106.311 157.801 84.9679 156.193 76.5251C153.535 62.5226 154.121 38.0851 154.121 38.0851L144.004 41.2634Z" fill="#FF327B"/>
<path opacity="0.4" d="M144.004 41.2634C144.004 41.2634 143.535 69.5778 147.234 79.8066C150.797 89.6135 161.426 106.471 161.426 106.471L167.586 106.311C167.586 106.311 157.801 84.9679 156.193 76.5251C153.535 62.5226 154.121 38.0851 154.121 38.0851L144.004 41.2634Z" fill="black"/>
<path opacity="0.3" d="M149.536 43.6964L151.191 39.0086L154.121 38.071C154.121 38.071 153.854 49.1952 154.496 60.7319C151.838 55.6362 149.536 46.2606 149.536 43.6964Z" fill="black"/>
<path d="M147.051 40.3634C147.051 40.3634 156.662 62.3445 162.874 74.8563C167.891 84.9585 183.502 98.5204 183.502 98.5204L187.778 95.553C187.778 95.553 176.034 79.4925 172.569 72.639C161.482 50.7094 164.215 41.6713 157.839 36.9038L147.051 40.3634Z" fill="#FF327B"/>
<path opacity="0.4" d="M147.051 40.3634C147.051 40.3634 156.662 62.3445 162.874 74.8563C167.891 84.9585 183.502 98.5204 183.502 98.5204L187.778 95.553C187.778 95.553 176.034 79.4925 172.569 72.639C161.482 50.7094 164.215 41.6713 157.839 36.9038L147.051 40.3634Z" fill="black"/>
<path d="M124.651 46.9685L121.519 47.5498L123.737 50.55C123.737 50.55 125.373 49.4109 125.715 47.967L124.651 46.9685Z" fill="#E4897B"/>
<path d="M119.466 49.9218L121.524 51.8438L123.732 50.55L121.519 47.5498L119.466 49.9218Z" fill="#E4897B"/>
<path d="M186.991 102.013L190.249 99.6689C190.304 99.6283 190.372 99.6093 190.44 99.6154C190.509 99.6214 190.572 99.6521 190.619 99.7017L192.842 102.013C192.943 102.125 192.995 102.274 192.987 102.425C192.979 102.576 192.912 102.718 192.799 102.819L192.748 102.861C191.594 103.653 190.999 103.982 189.569 105.008C188.688 105.641 186.831 107.169 185.612 108.041C184.393 108.913 183.47 107.755 183.896 107.287C185.819 105.168 186.33 103.724 186.634 102.528C186.69 102.321 186.816 102.139 186.991 102.013Z" fill="#263238"/>
<path d="M164.262 110.615H168.481C168.557 110.617 168.63 110.643 168.69 110.689C168.75 110.736 168.793 110.8 168.814 110.873L169.752 114.22C169.771 114.286 169.777 114.356 169.769 114.425C169.762 114.493 169.74 114.56 169.707 114.621C169.673 114.681 169.628 114.735 169.574 114.778C169.52 114.821 169.457 114.852 169.391 114.871C169.34 114.879 169.287 114.879 169.236 114.871H159.48C157.933 114.871 157.605 113.306 158.252 113.165C161.121 112.527 162.776 111.656 163.662 110.821C163.828 110.679 164.043 110.605 164.262 110.615Z" fill="#263238"/>
<path d="M148.57 16.3477V16.5962C148.57 16.7415 148.472 20.098 145.04 22.7466L144.693 23.0138L144.271 22.92C142.452 22.5262 141.242 21.7715 140.666 20.6792C140.398 20.1722 140.277 19.6011 140.314 19.0291L141.36 18.5604C143.4 17.7482 145.497 17.0839 147.633 16.5727C147.942 16.4977 148.256 16.418 148.57 16.3477Z" fill="white"/>
<path d="M144.773 9.71448C145.017 11.8568 145.79 15.6821 147.628 16.5821C147.628 16.5821 147.581 19.6011 144.463 22.0059C140.333 21.1058 141.355 18.5697 141.355 18.5697C143.437 17.3181 142.851 15.668 141.96 14.2241L144.773 9.71448Z" fill="#E4897B"/>
<path d="M143.629 11.5521L141.965 14.2195C142.176 14.5545 142.358 14.9075 142.508 15.2742C143.329 14.8758 144.384 13.6944 144.187 12.7663C144.075 12.3314 143.886 11.9202 143.629 11.5521Z" fill="#CE6F64"/>
<path d="M143.798 4.93763C144.979 8.28004 145.546 9.66763 144.613 12.035C143.207 15.593 138.847 16.3103 136.69 13.3944C134.754 10.7646 133.151 5.74862 135.785 3.08126C136.688 2.17121 137.915 1.65699 139.197 1.65171C140.479 1.64644 141.711 2.15054 142.621 3.05313C143.156 3.57987 143.559 4.22557 143.798 4.93763Z" fill="#E4897B"/>
<path d="M139.372 1.04205C138.237 2.27495 140.567 7.43153 144.121 8.22377C147.675 9.01601 144.806 3.4094 144.806 3.4094L139.372 1.04205Z" fill="#263238"/>
<path d="M139.742 2.48588C139.874 3.89222 134.224 6.01579 133.741 7.05648C133.976 5.36419 134.055 3.38125 136.189 1.9749C138.322 0.568564 140.08 1.11704 140.08 1.11704L139.742 2.48588Z" fill="#263238"/>
<path d="M139.325 2.54218C139.325 2.54218 138.701 4.15946 136.325 6.13771C138.199 5.60263 139.804 4.38508 140.825 2.725L139.325 2.54218Z" fill="#263238"/>
<path d="M145.818 7.65188C145.922 8.3293 145.753 9.02015 145.349 9.57388C144.81 10.3052 143.985 9.95828 143.671 9.16135C143.385 8.43943 143.319 7.19247 144.084 6.74713C144.216 6.67097 144.362 6.62171 144.513 6.60218C144.665 6.58264 144.818 6.59322 144.966 6.6333C145.113 6.67338 145.251 6.74217 145.371 6.83572C145.492 6.92927 145.593 7.04573 145.668 7.17841C145.752 7.32334 145.804 7.48497 145.818 7.65188Z" fill="#E4897B"/>
<path d="M157.769 36.0272L158.786 37.0678C158.866 37.1475 158.786 37.2835 158.622 37.3304L144.13 41.915C144.083 41.9363 144.03 41.9413 143.979 41.9295C143.928 41.9176 143.882 41.8895 143.849 41.8494L143.333 40.654C143.301 40.5696 143.385 40.4665 143.521 40.4196L157.511 35.9943C157.553 35.9765 157.599 35.9701 157.644 35.9759C157.689 35.9816 157.732 35.9993 157.769 36.0272Z" fill="#263238"/>
<path d="M138.837 8.09251C138.95 8.35503 138.898 8.63161 138.725 8.70193C138.551 8.77225 138.322 8.62224 138.209 8.35503C138.097 8.08782 138.148 7.81593 138.322 7.74561C138.495 7.67529 138.725 7.8253 138.837 8.09251Z" fill="#263238"/>
<path d="M135.842 9.35822C135.954 9.62542 135.903 9.89731 135.729 9.97232C135.556 10.0473 135.326 9.89262 135.213 9.62542C135.101 9.35822 135.152 9.08632 135.326 9.01132C135.499 8.93631 135.729 9.0957 135.842 9.35822Z" fill="#263238"/>
<path d="M135.406 8.99725L134.693 9.08163C134.693 9.08163 135.232 9.44259 135.406 8.99725Z" fill="#263238"/>
<path d="M136.896 9.41449C136.917 10.1202 136.839 10.8253 136.667 11.5099C136.843 11.5487 137.026 11.5487 137.203 11.5098C137.379 11.471 137.545 11.3942 137.689 11.2849L136.896 9.41449Z" fill="#DE5753"/>
<path d="M139.372 11.8521C139.353 11.8509 139.336 11.8437 139.322 11.8316C139.308 11.8194 139.298 11.803 139.295 11.7849C139.291 11.7668 139.293 11.748 139.301 11.7314C139.309 11.7147 139.323 11.7011 139.339 11.6927C139.672 11.5597 139.969 11.3504 140.205 11.0817C140.442 10.813 140.613 10.4924 140.703 10.1458C140.705 10.1353 140.708 10.1251 140.713 10.1159C140.718 10.1066 140.725 10.0985 140.733 10.092C140.741 10.0854 140.751 10.0806 140.761 10.0778C140.771 10.0749 140.782 10.0741 140.792 10.0754C140.804 10.0771 140.814 10.0811 140.824 10.087C140.834 10.0929 140.842 10.1006 140.848 10.1098C140.855 10.119 140.86 10.1294 140.862 10.1404C140.865 10.1514 140.865 10.1628 140.863 10.1739C140.771 10.5498 140.591 10.8981 140.336 11.1894C140.081 11.4807 139.76 11.7064 139.4 11.8474L139.372 11.8521Z" fill="#263238"/>
<path d="M139.264 6.75645C139.236 6.76117 139.208 6.76117 139.18 6.75645C138.998 6.64737 138.793 6.58174 138.582 6.56466C138.37 6.54759 138.158 6.57953 137.961 6.65801C137.921 6.67797 137.876 6.68179 137.834 6.66865C137.792 6.65552 137.757 6.62646 137.736 6.58769C137.715 6.54773 137.712 6.50151 137.725 6.4587C137.738 6.41589 137.767 6.3798 137.806 6.35799C138.052 6.25103 138.32 6.20498 138.588 6.22375C138.856 6.24252 139.115 6.32555 139.344 6.46581C139.382 6.48832 139.41 6.52509 139.422 6.56812C139.433 6.61114 139.427 6.65693 139.405 6.69551C139.388 6.71577 139.366 6.73179 139.342 6.74236C139.317 6.75293 139.291 6.75775 139.264 6.75645Z" fill="#263238"/>
<path d="M133.83 8.57069H133.798C133.776 8.56675 133.756 8.55864 133.738 8.54683C133.72 8.53502 133.704 8.51975 133.692 8.50189C133.68 8.48403 133.671 8.46393 133.667 8.44275C133.662 8.42157 133.662 8.39973 133.666 8.37848C133.712 8.11208 133.821 7.86053 133.984 7.64512C134.147 7.4297 134.36 7.25676 134.604 7.14091C134.646 7.12522 134.692 7.12621 134.733 7.14367C134.774 7.16113 134.807 7.19372 134.824 7.23467C134.841 7.27572 134.842 7.3219 134.825 7.36316C134.808 7.40443 134.776 7.43743 134.735 7.45499C134.541 7.54945 134.373 7.68897 134.244 7.86188C134.115 8.03478 134.03 8.23604 133.994 8.4488C133.986 8.48513 133.964 8.51723 133.935 8.53951C133.905 8.56178 133.868 8.57282 133.83 8.57069Z" fill="#263238"/>
<path d="M155.842 18.8088C156.4 19.2261 156.869 19.6151 157.356 20.037C157.844 20.4589 158.294 20.8808 158.763 21.3168C159.677 22.1981 160.549 23.1216 161.388 24.0873C162.232 25.058 163.015 26.0803 163.732 27.1484C163.92 27.411 164.084 27.6969 164.257 27.9688C164.431 28.2407 164.604 28.5173 164.759 28.8032C164.914 29.0892 165.078 29.3564 165.228 29.6799L165.476 30.1955L165.678 30.7252C166.108 32.0552 166.311 33.4483 166.278 34.8458C166.249 36.1461 166.11 37.4415 165.861 38.718C165.612 39.9599 165.299 41.1882 164.923 42.3979C164.545 43.6008 164.102 44.7823 163.596 45.9372L161.904 45.309C162.194 44.1839 162.471 43.0026 162.677 41.8353C162.907 40.6795 163.075 39.5121 163.179 38.3382C163.292 37.2012 163.319 36.0572 163.259 34.9161C163.224 34.375 163.157 33.8365 163.057 33.3035C162.959 32.8102 162.816 32.3269 162.63 31.8597L162.49 31.5362L162.33 31.2362C162.204 31.0206 162.03 30.7674 161.862 30.533C161.693 30.2987 161.552 30.0643 161.393 29.8252C161.233 29.5861 161.074 29.3564 160.891 29.1267C160.211 28.1891 159.438 27.3406 158.669 26.4734C157.9 25.6062 157.056 24.7858 156.198 23.9936C155.771 23.5904 155.34 23.1966 154.899 22.8122C154.459 22.4278 153.999 22.0434 153.615 21.7153L155.842 18.8088Z" fill="#E4897B"/>
<path d="M162.448 44.1887L159.878 46.0638L163.16 47.7983C163.16 47.7983 164.14 46.0638 163.821 44.6152L162.448 44.1887Z" fill="#E4897B"/>
<path d="M159.063 49.1014L161.754 49.9359L163.179 47.8076L159.878 46.0731L159.063 49.1014Z" fill="#E4897B"/>
<path d="M185.758 103.48H185.701C185.62 103.47 185.542 103.439 185.476 103.39C185.41 103.34 185.359 103.274 185.326 103.199C185.301 103.155 185.287 103.104 185.287 103.053C185.287 103.002 185.301 102.952 185.326 102.908C185.556 102.514 186.845 102.439 186.991 102.439C187.006 102.439 187.021 102.444 187.035 102.452C187.048 102.46 187.059 102.472 187.066 102.486C187.075 102.5 187.08 102.516 187.08 102.533C187.08 102.55 187.075 102.566 187.066 102.58C186.756 102.922 186.198 103.48 185.758 103.48ZM186.789 102.622C186.273 102.66 185.589 102.782 185.472 102.988C185.458 103.006 185.45 103.028 185.45 103.051C185.45 103.074 185.458 103.096 185.472 103.114C185.492 103.165 185.525 103.21 185.568 103.245C185.61 103.279 185.661 103.302 185.715 103.311C185.964 103.335 186.353 103.082 186.789 102.622Z" fill="#FF327B"/>
<path d="M186.902 102.613C186.47 102.613 185.622 102.374 185.462 102.027C185.434 101.966 185.428 101.897 185.445 101.832C185.463 101.767 185.502 101.71 185.556 101.671C185.604 101.628 185.661 101.595 185.722 101.575C185.783 101.555 185.848 101.547 185.912 101.553C186.428 101.605 187.033 102.439 187.056 102.491C187.063 102.504 187.067 102.518 187.067 102.533C187.067 102.548 187.063 102.562 187.056 102.575C187.05 102.589 187.041 102.6 187.03 102.609C187.018 102.618 187.005 102.624 186.991 102.627L186.902 102.613ZM185.861 101.722C185.826 101.721 185.792 101.728 185.759 101.74C185.727 101.753 185.698 101.773 185.673 101.797C185.594 101.867 185.603 101.919 185.617 101.956C185.72 102.186 186.386 102.425 186.822 102.425C186.606 102.158 186.203 101.736 185.884 101.703L185.861 101.722Z" fill="#FF327B"/>
<path d="M162.382 111.313C162.093 111.334 161.805 111.265 161.557 111.116C161.493 111.068 161.441 111.007 161.404 110.936C161.367 110.866 161.345 110.788 161.341 110.709C161.335 110.664 161.341 110.618 161.36 110.578C161.38 110.537 161.41 110.502 161.449 110.479C161.829 110.221 163.273 110.873 163.559 111.009C163.575 111.016 163.588 111.028 163.596 111.043C163.605 111.058 163.608 111.076 163.606 111.093C163.604 111.111 163.597 111.128 163.585 111.141C163.573 111.155 163.557 111.164 163.54 111.168C163.16 111.256 162.772 111.305 162.382 111.313ZM161.707 110.582C161.65 110.578 161.593 110.591 161.543 110.62C161.531 110.629 161.522 110.642 161.517 110.655C161.511 110.669 161.509 110.684 161.51 110.699C161.511 110.755 161.526 110.809 161.552 110.858C161.578 110.906 161.615 110.949 161.66 110.981C161.904 111.168 162.49 111.192 163.249 111.056C162.763 110.817 162.243 110.657 161.707 110.582Z" fill="#FF327B"/>
<path d="M163.521 111.168H163.488C163.019 110.971 162.049 110.198 162.105 109.799C162.105 109.71 162.176 109.602 162.391 109.574C163.235 109.476 163.591 110.981 163.606 111.07C163.608 111.085 163.607 111.101 163.602 111.115C163.597 111.13 163.589 111.143 163.577 111.154C163.561 111.166 163.541 111.171 163.521 111.168ZM162.471 109.738H162.415C162.326 109.738 162.274 109.776 162.269 109.818C162.241 110.048 162.907 110.662 163.39 110.929C163.282 110.559 162.991 109.738 162.471 109.738Z" fill="#FF327B"/>
<path d="M138.401 7.72687L137.689 7.81125C137.689 7.81125 138.223 8.1722 138.401 7.72687Z" fill="#263238"/>
<path d="M160.558 106.799L168.163 106.607L167.727 104.268L159.419 104.661L160.558 106.799Z" fill="#FF327B"/>
<path opacity="0.5" d="M160.558 106.799L168.163 106.607L167.727 104.268L159.419 104.661L160.558 106.799Z" fill="white"/>
<path d="M183.718 99.9361L188.744 96.3592L187.605 94.1653L182.082 98.3422L183.718 99.9361Z" fill="#FF327B"/>
<path opacity="0.5" d="M183.718 99.9361L188.744 96.3592L187.605 94.1653L182.082 98.3422L183.718 99.9361Z" fill="white"/>
<path d="M156.386 38.1882L156.761 38.0663C156.836 38.0429 156.883 37.9867 156.859 37.9445L156.175 36.3928C156.175 36.3459 156.081 36.3272 156.006 36.3506L155.631 36.4725C155.556 36.4959 155.509 36.5522 155.532 36.5944L156.212 38.146C156.232 38.1714 156.26 38.1893 156.292 38.1969C156.323 38.2046 156.356 38.2015 156.386 38.1882Z" fill="#FF327B"/>
<path d="M145.228 41.7322L145.603 41.615C145.678 41.5869 145.72 41.5307 145.701 41.4885L145.017 39.9368C145.017 39.8899 144.918 39.8712 144.843 39.8946L144.468 40.0165C144.393 40.0165 144.351 40.0962 144.37 40.1384L145.054 41.69C145.073 41.7322 145.176 41.7322 145.228 41.7322Z" fill="#FF327B"/>
<path d="M150.802 39.9509L151.177 39.8337C151.192 39.8334 151.207 39.8297 151.221 39.8228C151.235 39.8159 151.247 39.806 151.256 39.7939C151.266 39.7818 151.272 39.7677 151.276 39.7527C151.279 39.7376 151.279 39.7221 151.275 39.7071L150.591 38.1554C150.591 38.1133 150.492 38.0945 150.417 38.1179L150.047 38.2351C149.972 38.2586 149.925 38.3148 149.944 38.3617L150.628 39.9134C150.65 39.9373 150.678 39.9538 150.709 39.9605C150.74 39.9673 150.773 39.9639 150.802 39.9509Z" fill="#FF327B"/>
<path opacity="0.4" d="M156.386 38.1882L156.761 38.0663C156.836 38.0429 156.883 37.9867 156.859 37.9445L156.175 36.3928C156.175 36.3459 156.081 36.3272 156.006 36.3506L155.631 36.4725C155.556 36.4959 155.509 36.5522 155.532 36.5944L156.212 38.146C156.232 38.1714 156.26 38.1893 156.292 38.1969C156.323 38.2046 156.356 38.2015 156.386 38.1882Z" fill="black"/>
<path opacity="0.4" d="M145.228 41.7322L145.603 41.615C145.678 41.5869 145.72 41.5307 145.701 41.4885L145.017 39.9368C145.017 39.8899 144.918 39.8712 144.843 39.8946L144.468 40.0165C144.393 40.0165 144.351 40.0962 144.37 40.1384L145.054 41.69C145.073 41.7322 145.176 41.7322 145.228 41.7322Z" fill="black"/>
<path opacity="0.4" d="M150.802 39.9509L151.177 39.8337C151.192 39.8334 151.207 39.8297 151.221 39.8228C151.235 39.8159 151.247 39.806 151.256 39.7939C151.266 39.7818 151.272 39.7677 151.276 39.7527C151.279 39.7376 151.279 39.7221 151.275 39.7071L150.591 38.1554C150.591 38.1133 150.492 38.0945 150.417 38.1179L150.047 38.2351C149.972 38.2586 149.925 38.3148 149.944 38.3617L150.628 39.9134C150.65 39.9373 150.678 39.9538 150.709 39.9605C150.74 39.9673 150.773 39.9639 150.802 39.9509Z" fill="black"/>
<path d="M155.335 28.5266C154.009 26.6515 152.738 22.2872 153.066 20.6511L154.379 22.2637C154.67 24.7764 154.984 26.7875 155.335 28.5266Z" fill="#FF327B"/>
<path opacity="0.5" d="M155.335 28.5266C154.009 26.6515 152.738 22.2872 153.066 20.6511L154.379 22.2637C154.67 24.7764 154.984 26.7875 155.335 28.5266Z" fill="white"/>
<path d="M153.741 15.4805C155.537 15.4008 159.067 19.812 159.067 19.812L155.401 24.9686C155.401 24.9686 151.285 21.6872 150.966 19.4042C150.694 17.5009 151.454 15.6024 153.741 15.4805Z" fill="#FF327B"/>
<path opacity="0.6" d="M153.741 15.4805C155.537 15.4008 159.067 19.812 159.067 19.812L155.401 24.9686C155.401 24.9686 151.285 21.6872 150.966 19.4042C150.694 17.5009 151.454 15.6024 153.741 15.4805Z" fill="white"/>
<path d="M176.222 142.051C168.519 139.707 163.746 131.312 163.746 131.312C163.746 131.312 161.304 131.176 161.186 133.379C160.985 137.251 163.09 140.045 164.384 141.381L160.68 141.175C159.36 141.1 158.036 141.24 156.761 141.587L155.532 141.925C154.511 142.206 153.64 142.877 153.106 143.792C152.572 144.708 152.419 145.796 152.677 146.824L154.44 154.024C154.97 156.19 156.289 158.08 158.138 159.326C159.986 160.573 162.233 161.086 164.44 160.765C168.214 160.217 174.088 159.359 175.106 159.176L177.788 158.951L178.725 142.797L176.222 142.051Z" fill="white"/>
<path d="M188.28 139.834H177.905C177.094 139.834 176.437 140.491 176.437 141.301V159.649C176.437 160.46 177.094 161.117 177.905 161.117H188.28C189.09 161.117 189.747 160.46 189.747 159.649V141.301C189.747 140.491 189.09 139.834 188.28 139.834Z" fill="#FF327B"/>
<path opacity="0.3" d="M188.28 139.834H177.905C177.094 139.834 176.437 140.491 176.437 141.301V159.649C176.437 160.46 177.094 161.117 177.905 161.117H188.28C189.09 161.117 189.747 160.46 189.747 159.649V141.301C189.747 140.491 189.09 139.834 188.28 139.834Z" fill="black"/>
</svg>
